<?xml version="1.0" encoding="UTF-8"?>
<!-- Generator: https://ezgif.com/png-to-svg -->
<svg version="1.1" xmlns="http://www.w3.org/2000/svg" width="9375" height="9375">
<path d="M0 0 C0.71 0.55 1.42 1.11 2.15 1.67 C5.11 3.97 8.06 6.27 11.01 8.58 C16.62 12.95 22.29 17.24 28 21.5 C36.76 28.04 45.4 34.72 54.01 41.45 C64.61 49.72 75.32 57.84 86 66 C94.89 72.79 103.78 79.59 112.64 86.42 C118.69 91.07 124.75 95.7 130.81 100.33 C135.08 103.59 139.35 106.85 143.62 110.12 C147.21 112.86 150.8 115.61 154.39 118.36 C161.82 124.03 169.23 129.72 176.64 135.42 C183.41 140.63 190.21 145.81 197 151 C205.89 157.79 214.78 164.59 223.64 171.42 C230.41 176.63 237.21 181.81 244 187 C252.89 193.79 261.78 200.59 270.64 207.42 C276.69 212.07 282.75 216.7 288.81 221.33 C293.08 224.59 297.35 227.85 301.62 231.12 C305.21 233.86 308.8 236.61 312.39 239.36 C319.82 245.03 327.23 250.72 334.64 256.42 C341.41 261.63 348.21 266.81 355 272 C363.89 278.79 372.78 285.59 381.64 292.42 C388.41 297.63 395.21 302.81 402 308 C410.89 314.79 419.78 321.59 428.64 328.42 C435.41 333.63 442.21 338.81 449 344 C457.89 350.79 466.78 357.59 475.64 364.42 C481.69 369.07 487.75 373.7 493.81 378.33 C498.08 381.59 502.35 384.85 506.62 388.12 C510.21 390.86 513.8 393.61 517.39 396.36 C524.82 402.03 532.23 407.72 539.64 413.42 C546.41 418.63 553.21 423.81 560 429 C568.89 435.79 577.78 442.59 586.64 449.42 C593.41 454.63 600.21 459.81 607 465 C615.89 471.79 624.78 478.59 633.64 485.42 C639.69 490.07 645.75 494.7 651.81 499.33 C656.08 502.59 660.35 505.85 664.62 509.12 C668.21 511.86 671.8 514.61 675.39 517.36 C682.82 523.03 690.23 528.72 697.64 534.42 C704.41 539.63 711.21 544.81 718 550 C726.89 556.79 735.78 563.59 744.64 570.42 C751.41 575.63 758.21 580.81 765 586 C773.89 592.79 782.78 599.59 791.64 606.42 C798.41 611.63 805.21 616.81 812 622 C820.89 628.79 829.78 635.59 838.64 642.42 C844.69 647.07 850.75 651.7 856.81 656.33 C861.08 659.59 865.35 662.85 869.62 666.12 C873.21 668.86 876.8 671.61 880.39 674.36 C887.82 680.03 895.23 685.72 902.64 691.42 C909.41 696.63 916.21 701.81 923 707 C931.89 713.79 940.78 720.59 949.64 727.42 C956.41 732.63 963.21 737.81 970 743 C978.89 749.79 987.78 756.59 996.64 763.42 C1002.69 768.07 1008.75 772.7 1014.81 777.33 C1019.08 780.59 1023.35 783.85 1027.62 787.12 C1031.21 789.86 1034.8 792.61 1038.39 795.36 C1045.82 801.03 1053.23 806.72 1060.64 812.42 C1067.41 817.63 1074.21 822.81 1081 828 C1089.89 834.79 1098.78 841.59 1107.64 848.42 C1114.41 853.63 1121.21 858.81 1128 864 C1136.89 870.79 1145.78 877.59 1154.64 884.42 C1161.41 889.63 1168.21 894.81 1175 900 C1183.89 906.79 1192.78 913.59 1201.64 920.42 C1207.69 925.07 1213.75 929.7 1219.81 934.33 C1224.08 937.59 1228.35 940.85 1232.62 944.12 C1236.21 946.86 1239.8 949.61 1243.39 952.36 C1250.82 958.03 1258.23 963.72 1265.64 969.42 C1272.41 974.63 1279.21 979.81 1286 985 C1294.89 991.79 1303.78 998.59 1312.64 1005.42 C1316.5 1008.39 1320.38 1011.35 1324.25 1014.31 C1324.96 1014.86 1325.68 1015.41 1326.41 1015.97 C1330.07 1018.77 1333.73 1021.56 1337.41 1024.33 C1395.86 1068.57 1434.76 1127.08 1445.46 1200.65 C1446.74 1210.65 1447.14 1220.5 1447.13 1230.58 C1447.13 1232.04 1447.13 1233.51 1447.13 1234.97 C1447.14 1238.98 1447.13 1243 1447.13 1247.01 C1447.13 1251.4 1447.13 1255.79 1447.14 1260.18 C1447.14 1267.91 1447.14 1275.65 1447.14 1283.38 C1447.14 1294.99 1447.14 1306.61 1447.14 1318.22 C1447.15 1338.1 1447.15 1357.98 1447.15 1377.86 C1447.15 1398.12 1447.16 1418.38 1447.16 1438.65 C1447.16 1439.93 1447.16 1441.21 1447.16 1442.54 C1447.16 1447.77 1447.16 1453 1447.16 1458.23 C1447.18 1507.46 1447.18 1556.68 1447.19 1605.91 C1447.19 1654.48 1447.2 1703.05 1447.2 1751.62 C1447.21 1754.71 1447.21 1757.81 1447.21 1760.9 C1447.21 1773.38 1447.21 1785.86 1447.21 1798.33 C1447.24 1949.69 1447.25 2101.04 1447.27 2252.39 C1447.27 2299.71 1447.28 2347.03 1447.28 2394.35 C1447.28 2410.09 1447.28 2425.83 1447.29 2441.56 C1447.29 2443.3 1447.29 2445.03 1447.29 2446.82 C1447.3 2624.63 1447.32 2802.44 1447.34 3164.7 C1447.34 3185.39 1447.34 3206.08 1447.34 3226.77 C1447.34 3228.63 1447.34 3230.5 1447.34 3232.42 C1447.35 3270.22 1447.35 3308.01 1447.35 3345.81 C1447.35 3355.28 1447.35 3364.76 1447.35 3374.23 C1447.36 3553.2 1447.37 3732.17 1447.4 3911.14 C1447.4 3913.97 1447.4 3913.97 1447.4 3916.85 C1447.41 3979.52 1447.42 4042.19 1447.43 4104.85 C1447.44 4161.48 1447.45 4218.1 1447.46 4274.72 C1447.46 4277.51 1447.46 4277.51 1447.46 4280.36 C1447.48 4396.82 1447.49 4513.28 1447.5 4629.75 C1447.5 4631.54 1447.5 4633.34 1447.5 4635.19 C1447.51 4714.17 1447.51 4793.14 1447.51 4872.12 C1447.51 4903.88 1447.51 4935.65 1447.51 4967.42 C1447.51 4972.69 1447.51 4977.96 1447.51 4983.23 C1447.52 5063.83 1447.52 5144.44 1447.54 5225.05 C1447.54 5226.79 1447.54 5228.52 1447.54 5230.32 C1447.55 5258.3 1447.55 5286.27 1447.56 5314.25 C1447.58 5393.65 1447.6 5473.05 1447.59 5552.46 C1447.59 5554.87 1447.59 5554.87 1447.59 5557.33 C1447.59 5592.46 1447.59 5627.58 1447.59 5662.7 C1447.59 5676.71 1447.58 5690.72 1447.58 5704.72 C1447.58 5706.25 1447.58 5707.78 1447.58 5709.35 C1447.58 5757.86 1447.59 5806.37 1447.61 5854.88 C1447.63 5902.63 1447.64 5950.37 1447.62 5998.11 C1447.62 6004.65 1447.61 6011.18 1447.61 6017.71 C1447.61 6018.99 1447.61 6020.27 1447.61 6021.59 C1447.6 6041.79 1447.62 6061.99 1447.63 6082.19 C1447.65 6101.93 1447.65 6121.67 1447.63 6141.41 C1447.62 6152.94 1447.62 6164.47 1447.64 6176 C1447.66 6183.63 1447.65 6191.26 1447.64 6198.9 C1447.62 6203.22 1447.62 6207.54 1447.64 6211.86 C1447.66 6215.78 1447.65 6219.71 1447.63 6223.63 C1447.62 6225.68 1447.64 6227.74 1447.66 6229.79 C1447.49 6247.59 1440.82 6262.8 1428.81 6275.88 C1414.53 6289.19 1397.46 6292.97 1378.45 6292.38 C1359.8 6291.36 1346.34 6279.98 1332.32 6268.83 C1328.64 6265.93 1324.92 6263.09 1321.19 6260.25 C1319.77 6259.17 1318.36 6258.09 1316.95 6257.02 C1316.28 6256.5 1315.61 6255.99 1314.92 6255.47 C1312.11 6253.32 1309.3 6251.16 1306.5 6249 C1298.68 6242.98 1290.84 6236.99 1283 6231 C1274.12 6224.21 1265.23 6217.42 1256.38 6210.59 C1252.42 6207.55 1248.46 6204.53 1244.5 6201.5 C1239.49 6197.67 1234.49 6193.84 1229.5 6190 C1221.68 6183.98 1213.84 6177.99 1206 6172 C1197.11 6165.21 1188.22 6158.41 1179.36 6151.58 C1172.59 6146.37 1165.79 6141.19 1159 6136 C1150.11 6129.21 1141.22 6122.41 1132.36 6115.58 C1125.59 6110.37 1118.79 6105.19 1112 6100 C1103.11 6093.21 1094.22 6086.41 1085.36 6079.58 C1078.59 6074.37 1071.79 6069.19 1065 6064 C1056.11 6057.21 1047.22 6050.41 1038.36 6043.58 C1031.59 6038.37 1024.79 6033.19 1018 6028 C1009.11 6021.21 1000.22 6014.41 991.36 6007.58 C984.59 6002.37 977.79 5997.19 971 5992 C962.12 5985.21 953.23 5978.42 944.38 5971.59 C940.42 5968.55 936.46 5965.53 932.5 5962.5 C927.49 5958.67 922.49 5954.84 917.5 5951 C909.68 5944.98 901.84 5938.99 894 5933 C885.11 5926.21 876.22 5919.41 867.36 5912.58 C860.59 5907.37 853.79 5902.19 847 5897 C838.11 5890.21 829.22 5883.41 820.36 5876.58 C813.59 5871.37 806.79 5866.19 800 5861 C791.11 5854.21 782.22 5847.41 773.36 5840.58 C766.59 5835.37 759.79 5830.19 753 5825 C744.11 5818.21 735.22 5811.41 726.36 5804.58 C719.59 5799.37 712.79 5794.19 706 5789 C697.11 5782.21 688.22 5775.41 679.36 5768.58 C672.59 5763.37 665.79 5758.19 659 5753 C650.11 5746.21 641.22 5739.41 632.36 5732.58 C625.59 5727.37 618.79 5722.19 612 5717 C603.12 5710.21 594.23 5703.42 585.38 5696.59 C581.42 5693.55 577.46 5690.53 573.5 5687.5 C568.49 5683.67 563.49 5679.84 558.5 5676 C550.68 5669.98 542.84 5663.99 535 5658 C526.11 5651.21 517.22 5644.41 508.36 5637.58 C501.59 5632.37 494.79 5627.19 488 5622 C479.11 5615.21 470.22 5608.41 461.36 5601.58 C454.59 5596.37 447.79 5591.19 441 5586 C432.11 5579.21 423.22 5572.41 414.36 5565.58 C407.59 5560.37 400.79 5555.19 394 5550 C385.11 5543.21 376.22 5536.41 367.36 5529.58 C360.59 5524.37 353.79 5519.19 347 5514 C338.11 5507.21 329.22 5500.41 320.36 5493.58 C313.59 5488.37 306.79 5483.19 300 5478 C291.11 5471.21 282.22 5464.41 273.36 5457.58 C266.59 5452.37 259.79 5447.19 253 5442 C244.12 5435.21 235.23 5428.42 226.38 5421.59 C222.42 5418.55 218.46 5415.53 214.5 5412.5 C209.49 5408.67 204.49 5404.84 199.5 5401 C191.68 5394.98 183.84 5388.99 176 5383 C167.11 5376.21 158.22 5369.41 149.36 5362.58 C142.59 5357.37 135.79 5352.19 129 5347 C120.11 5340.21 111.22 5333.41 102.36 5326.58 C95.59 5321.37 88.79 5316.19 82 5311 C73.11 5304.21 64.22 5297.41 55.36 5290.58 C48.59 5285.37 41.79 5280.19 35 5275 C26.11 5268.21 17.22 5261.41 8.36 5254.58 C5.91 5252.69 3.45 5250.82 0.98 5248.95 C-18.82 5233.93 -38.69 5218.78 -54 5199 C-55.64 5197.08 -57.29 5195.16 -58.94 5193.25 C-100.09 5143.72 -113.55 5080.96 -113.38 5018.13 C-113.37 5013.74 -113.38 5009.34 -113.39 5004.95 C-113.4 4997.22 -113.4 4989.5 -113.39 4981.78 C-113.38 4970.19 -113.38 4958.6 -113.39 4947 C-113.4 4927.15 -113.4 4907.3 -113.39 4887.45 C-113.38 4867.22 -113.38 4847 -113.39 4826.78 C-113.39 4825.5 -113.39 4824.22 -113.39 4822.89 C-113.39 4816.34 -113.39 4809.79 -113.39 4803.24 C-113.41 4755.4 -113.41 4707.56 -113.4 4659.73 C-113.39 4611.24 -113.39 4562.75 -113.39 4514.27 C-113.39 4512.74 -113.39 4511.21 -113.39 4509.63 C-113.4 4495.62 -113.4 4481.61 -113.4 4467.6 C-113.41 4432.46 -113.41 4397.32 -113.41 4362.18 C-113.41 4360.57 -113.41 4358.96 -113.41 4357.3 C-113.42 4277.92 -113.41 4198.53 -113.41 4119.15 C-113.41 4115.67 -113.41 4112.19 -113.41 4108.72 C-113.41 4106.99 -113.41 4105.27 -113.41 4103.49 C-113.41 4080.77 -113.4 4058.04 -113.4 4035.31 C-113.4 4033.57 -113.4 4031.84 -113.4 4030.05 C-113.4 3949.56 -113.4 3869.08 -113.4 3788.6 C-113.4 3779.82 -113.4 3771.04 -113.4 3762.26 C-113.4 3735.81 -113.4 3709.35 -113.4 3682.89 C-113.41 3602.21 -113.41 3521.53 -113.41 3440.85 C-113.41 3439.05 -113.41 3437.25 -113.41 3435.4 C-113.41 3319.05 -113.41 3202.7 -113.4 3086.35 C-113.4 3084.49 -113.4 3082.63 -113.4 3080.72 C-113.4 3018.5 -113.39 2956.27 -113.39 2894.05 C-113.38 2705.86 -113.37 2517.68 -113.39 2181.58 C-113.39 2119.36 -113.4 2057.13 -113.4 1994.91 C-113.4 1993.05 -113.4 1991.19 -113.4 1989.28 C-113.41 1872.98 -113.41 1756.68 -113.41 1640.37 C-113.41 1638.58 -113.41 1636.78 -113.41 1634.93 C-113.41 1554.3 -113.41 1473.68 -113.4 1393.05 C-113.4 1366.61 -113.4 1340.16 -113.4 1313.72 C-113.4 1304.95 -113.4 1296.18 -113.4 1287.41 C-113.4 1206.92 -113.4 1126.43 -113.4 1045.94 C-113.4 1044.21 -113.4 1042.47 -113.4 1040.68 C-113.4 1017.96 -113.41 995.24 -113.41 972.51 C-113.41 970.79 -113.41 969.07 -113.41 967.29 C-113.41 963.82 -113.41 960.34 -113.41 956.87 C-113.41 877.59 -113.42 798.31 -113.41 719.03 C-113.41 717.43 -113.41 715.82 -113.41 714.16 C-113.41 679.1 -113.4 644.04 -113.4 608.97 C-113.4 594.99 -113.4 581.01 -113.39 567.02 C-113.39 565.5 -113.39 563.97 -113.39 562.4 C-113.39 513.97 -113.39 465.53 -113.4 417.1 C-113.41 369.44 -113.41 321.77 -113.39 274.11 C-113.39 267.59 -113.39 261.07 -113.39 254.55 C-113.39 253.27 -113.39 251.99 -113.38 250.68 C-113.38 230.51 -113.38 210.34 -113.39 190.17 C-113.4 170.46 -113.4 150.75 -113.39 131.04 C-113.38 119.53 -113.38 108.02 -113.39 96.51 C-113.4 88.89 -113.4 81.27 -113.38 73.66 C-113.38 69.34 -113.38 65.02 -113.39 60.71 C-113.4 56.79 -113.39 52.88 -113.38 48.96 C-113.38 47.56 -113.38 46.17 -113.39 44.77 C-113.48 26.55 -109.07 10.47 -96.32 -2.87 C-66.16 -32.96 -30.23 -23.52 0 0 Z " fill="#FFFFFF" transform="translate(2017,1496)"/>
<path d="M0 0 C3.86 2.96 7.65 6.01 11.44 9.07 C15 11.92 18.63 14.69 22.27 17.45 C23.67 18.52 25.07 19.59 26.48 20.66 C27.17 21.19 27.87 21.72 28.58 22.26 C32.21 25.03 35.83 27.8 39.46 30.57 C40.17 31.12 40.88 31.66 41.61 32.22 C46.87 36.24 52.11 40.27 57.35 44.3 C63.39 48.96 69.46 53.58 75.52 58.21 C79.79 61.48 84.05 64.74 88.32 68 C91.91 70.75 95.51 73.5 99.1 76.24 C106.52 81.92 113.94 87.6 121.35 93.3 C128.12 98.52 134.92 103.7 141.71 108.89 C150.6 115.68 159.48 122.48 168.35 129.3 C175.12 134.52 181.92 139.7 188.71 144.89 C197.6 151.68 206.48 158.48 215.35 165.3 C222.12 170.52 228.92 175.7 235.71 180.89 C244.6 187.68 253.48 194.48 262.35 201.3 C268.39 205.96 274.46 210.58 280.52 215.21 C284.79 218.48 289.05 221.74 293.32 225 C296.91 227.75 300.51 230.5 304.1 233.24 C311.52 238.92 318.94 244.6 326.35 250.3 C333.12 255.52 339.92 260.7 346.71 265.89 C355.6 272.68 364.48 279.48 373.35 286.3 C380.12 291.52 386.92 296.7 393.71 301.89 C402.6 308.68 411.48 315.48 420.35 322.3 C426.39 326.96 432.46 331.58 438.52 336.21 C442.79 339.48 447.05 342.74 451.32 346 C454.91 348.75 458.51 351.5 462.1 354.24 C469.52 359.92 476.94 365.6 484.35 371.3 C491.12 376.52 497.92 381.7 504.71 386.89 C513.6 393.68 522.48 400.48 531.35 407.3 C538.12 412.52 544.92 417.7 551.71 422.89 C560.6 429.68 569.48 436.48 578.35 443.3 C585.12 448.52 591.92 453.7 598.71 458.89 C607.6 465.68 616.48 472.48 625.35 479.3 C631.39 483.96 637.46 488.58 643.52 493.21 C647.79 496.48 652.05 499.74 656.32 503 C659.91 505.75 663.51 508.5 667.1 511.24 C674.52 516.92 681.94 522.6 689.35 528.3 C696.12 533.52 702.92 538.7 709.71 543.89 C718.6 550.68 727.48 557.48 736.35 564.3 C743.12 569.52 749.92 574.7 756.71 579.89 C765.6 586.68 774.48 593.48 783.35 600.3 C789.39 604.96 795.46 609.58 801.52 614.21 C805.79 617.48 810.05 620.74 814.32 624 C817.91 626.75 821.51 629.5 825.1 632.24 C832.52 637.92 839.94 643.6 847.35 649.3 C854.12 654.52 860.92 659.7 867.71 664.89 C876.6 671.68 885.48 678.48 894.35 685.3 C901.12 690.52 907.92 695.7 914.71 700.89 C923.6 707.68 932.48 714.48 941.35 721.3 C948.12 726.52 954.92 731.7 961.71 736.89 C970.6 743.68 979.48 750.48 988.35 757.3 C994.39 761.96 1000.46 766.58 1006.52 771.21 C1010.79 774.48 1015.05 777.74 1019.32 781 C1022.91 783.75 1026.51 786.5 1030.1 789.24 C1037.52 794.92 1044.94 800.6 1052.35 806.3 C1059.12 811.52 1065.92 816.7 1072.71 821.89 C1081.6 828.68 1090.48 835.48 1099.35 842.3 C1106.12 847.52 1112.92 852.7 1119.71 857.89 C1128.6 864.68 1137.48 871.48 1146.35 878.3 C1152.39 882.96 1158.46 887.58 1164.52 892.21 C1168.79 895.48 1173.05 898.74 1177.32 902 C1180.91 904.75 1184.51 907.5 1188.1 910.24 C1195.52 915.92 1202.94 921.6 1210.35 927.3 C1217.12 932.52 1223.92 937.7 1230.71 942.89 C1239.6 949.68 1248.48 956.48 1257.35 963.3 C1264.12 968.52 1270.92 973.7 1277.71 978.89 C1286.6 985.68 1295.48 992.48 1304.35 999.3 C1311.12 1004.52 1317.92 1009.7 1324.71 1014.89 C1330.38 1019.22 1336.04 1023.55 1341.71 1027.89 C1342.29 1028.34 1342.88 1028.79 1343.49 1029.25 C1346.7 1031.71 1349.9 1034.17 1353.09 1036.64 C1354.2 1037.5 1355.32 1038.35 1356.43 1039.21 C1364.91 1045.7 1373 1052.48 1380.71 1059.89 C1381.6 1060.74 1381.6 1060.74 1382.51 1061.61 C1391.4 1070.14 1399.44 1078.93 1406.71 1088.89 C1407.2 1089.55 1407.69 1090.22 1408.19 1090.91 C1441.12 1135.92 1458.93 1188.7 1458.83 1244.57 C1458.83 1246.03 1458.84 1247.49 1458.84 1248.95 C1458.84 1252.96 1458.84 1256.97 1458.84 1260.98 C1458.83 1265.36 1458.84 1269.74 1458.84 1274.13 C1458.85 1281.85 1458.85 1289.57 1458.84 1297.29 C1458.84 1308.88 1458.84 1320.48 1458.85 1332.07 C1458.85 1351.92 1458.86 1371.76 1458.85 1391.61 C1458.85 1411.84 1458.86 1432.07 1458.86 1452.3 C1458.86 1453.58 1458.86 1454.86 1458.86 1456.18 C1458.86 1461.41 1458.86 1466.63 1458.86 1471.86 C1458.87 1521 1458.88 1570.15 1458.88 1619.29 C1458.88 1667.79 1458.89 1716.28 1458.89 1764.77 C1458.89 1767.86 1458.89 1770.95 1458.89 1774.04 C1458.9 1786.49 1458.9 1798.95 1458.9 1811.41 C1458.92 1960.76 1458.93 2110.11 1458.94 2259.46 C1458.94 2310.2 1458.95 2360.95 1458.95 2411.69 C1458.95 2413.42 1458.95 2415.14 1458.95 2416.92 C1458.95 2432.64 1458.95 2448.36 1458.96 2464.08 C1458.97 2641.71 1458.98 2819.33 1459 3181.2 C1459 3198.1 1459 3214.99 1459 3231.89 C1459 3237.54 1459 3243.18 1459 3248.82 C1459 3284.68 1459 3320.53 1459 3356.38 C1459 3365.84 1459 3375.3 1459 3384.76 C1459.01 3563.44 1459.02 3742.12 1459.04 3920.8 C1459.04 3922.68 1459.04 3924.56 1459.04 3926.5 C1459.05 3987.17 1459.06 4047.85 1459.06 4108.52 C1459.07 4166.94 1459.08 4225.37 1459.09 4283.79 C1459.09 4285.64 1459.09 4287.5 1459.09 4289.42 C1459.1 4405.69 1459.11 4521.97 1459.12 4638.24 C1459.12 4640.93 1459.12 4640.93 1459.12 4643.68 C1459.12 4722.53 1459.12 4801.37 1459.12 4880.22 C1459.12 4911.94 1459.12 4943.66 1459.13 4975.38 C1459.13 4980.64 1459.13 4985.89 1459.13 4991.15 C1459.13 5071.63 1459.13 5152.11 1459.15 5232.58 C1459.15 5234.32 1459.15 5236.05 1459.15 5237.84 C1459.15 5265.78 1459.16 5293.71 1459.16 5321.64 C1459.18 5400.92 1459.19 5480.19 1459.19 5559.46 C1459.19 5561.07 1459.19 5562.67 1459.19 5564.33 C1459.19 5599.4 1459.18 5634.46 1459.18 5669.53 C1459.18 5683.51 1459.18 5697.5 1459.18 5711.48 C1459.18 5713.01 1459.18 5714.53 1459.18 5716.1 C1459.17 5764.53 1459.18 5812.96 1459.2 5861.39 C1459.21 5909.06 1459.22 5956.73 1459.2 6004.39 C1459.2 6010.91 1459.2 6017.44 1459.2 6023.96 C1459.2 6025.23 1459.2 6026.51 1459.2 6027.83 C1459.19 6047.99 1459.2 6068.16 1459.21 6088.33 C1459.23 6108.04 1459.23 6127.75 1459.21 6147.46 C1459.2 6158.97 1459.2 6170.48 1459.22 6181.99 C1459.23 6189.61 1459.23 6197.23 1459.22 6204.85 C1459.21 6209.16 1459.21 6213.48 1459.22 6217.79 C1459.24 6221.71 1459.23 6225.63 1459.21 6229.54 C1459.21 6231.59 1459.22 6233.64 1459.24 6235.69 C1459.09 6254.8 1453.09 6270.99 1439.71 6284.89 C1423.79 6299.06 1407.03 6301.87 1386.45 6301.08 C1381.04 6300.7 1376.54 6299.28 1371.71 6296.89 C1370.46 6296.34 1370.46 6296.34 1369.19 6295.78 C1361.22 6291.91 1354.5 6286.23 1347.6 6280.75 C1342.63 6276.8 1337.55 6272.99 1332.46 6269.2 C1326.19 6264.52 1319.98 6259.8 1313.86 6254.94 C1307.27 6249.73 1300.58 6244.65 1293.9 6239.56 C1290.25 6236.77 1286.6 6233.99 1282.96 6231.2 C1282.25 6230.66 1281.53 6230.11 1280.8 6229.55 C1275.55 6225.53 1270.31 6221.5 1265.07 6217.47 C1258.29 6212.26 1251.5 6207.08 1244.71 6201.89 C1235.82 6195.09 1226.93 6188.29 1218.07 6181.47 C1211.29 6176.26 1204.5 6171.08 1197.71 6165.89 C1188.82 6159.09 1179.93 6152.29 1171.07 6145.47 C1164.29 6140.26 1157.5 6135.08 1150.71 6129.89 C1141.82 6123.09 1132.93 6116.29 1124.07 6109.47 C1117.29 6104.26 1110.5 6099.08 1103.71 6093.89 C1094.82 6087.09 1085.93 6080.29 1077.07 6073.47 C1070.29 6068.26 1063.5 6063.08 1056.71 6057.89 C1047.82 6051.1 1038.94 6044.3 1030.08 6037.48 C1026.13 6034.44 1022.17 6031.41 1018.21 6028.39 C1013.2 6024.56 1008.2 6020.73 1003.21 6016.89 C995.39 6010.87 987.55 6004.88 979.71 5998.89 C970.82 5992.09 961.93 5985.29 953.07 5978.47 C946.29 5973.26 939.5 5968.08 932.71 5962.89 C923.82 5956.09 914.93 5949.29 906.07 5942.47 C899.29 5937.26 892.5 5932.08 885.71 5926.89 C876.82 5920.09 867.93 5913.29 859.07 5906.47 C852.29 5901.26 845.5 5896.08 838.71 5890.89 C829.82 5884.09 820.93 5877.29 812.07 5870.47 C805.29 5865.26 798.5 5860.08 791.71 5854.89 C782.82 5848.09 773.93 5841.29 765.07 5834.47 C758.29 5829.26 751.5 5824.08 744.71 5818.89 C735.82 5812.09 726.93 5805.29 718.07 5798.47 C711.29 5793.26 704.5 5788.08 697.71 5782.89 C688.82 5776.1 679.94 5769.3 671.08 5762.48 C667.13 5759.44 663.17 5756.41 659.21 5753.39 C654.2 5749.56 649.2 5745.73 644.21 5741.89 C636.39 5735.87 628.55 5729.88 620.71 5723.89 C611.82 5717.09 602.93 5710.29 594.07 5703.47 C587.29 5698.26 580.5 5693.08 573.71 5687.89 C564.82 5681.09 555.93 5674.29 547.07 5667.47 C540.29 5662.26 533.5 5657.08 526.71 5651.89 C517.82 5645.09 508.93 5638.29 500.07 5631.47 C493.29 5626.26 486.5 5621.08 479.71 5615.89 C470.82 5609.09 461.93 5602.29 453.07 5595.47 C446.29 5590.26 439.5 5585.08 432.71 5579.89 C423.82 5573.09 414.93 5566.29 406.07 5559.47 C399.29 5554.26 392.5 5549.08 385.71 5543.89 C376.82 5537.09 367.93 5530.29 359.07 5523.47 C352.29 5518.26 345.5 5513.08 338.71 5507.89 C329.82 5501.1 320.94 5494.3 312.08 5487.48 C308.13 5484.44 304.17 5481.41 300.21 5478.39 C295.2 5474.56 290.2 5470.73 285.21 5466.89 C277.39 5460.87 269.55 5454.88 261.71 5448.89 C252.82 5442.09 243.93 5435.29 235.07 5428.47 C228.29 5423.26 221.5 5418.08 214.71 5412.89 C205.82 5406.09 196.93 5399.29 188.07 5392.47 C181.29 5387.26 174.5 5382.08 167.71 5376.89 C158.82 5370.09 149.93 5363.29 141.07 5356.47 C134.29 5351.26 127.5 5346.08 120.71 5340.89 C111.82 5334.09 102.93 5327.29 94.07 5320.47 C87.29 5315.26 80.5 5310.08 73.71 5304.89 C64.82 5298.09 55.93 5291.29 47.07 5284.47 C40.29 5279.26 33.5 5274.08 26.71 5268.89 C21.69 5265.06 16.68 5261.22 11.67 5257.39 C9.83 5255.98 7.98 5254.57 6.14 5253.16 C-12.96 5238.58 -31.56 5223 -46.29 5203.89 C-46.81 5203.21 -47.34 5202.54 -47.87 5201.85 C-81.18 5158.64 -101.52 5105.26 -101.42 5050.42 C-101.42 5048.96 -101.42 5047.5 -101.42 5046.04 C-101.43 5042.02 -101.43 5038.01 -101.42 5033.99 C-101.42 5029.6 -101.42 5025.21 -101.43 5020.81 C-101.43 5013.08 -101.43 5005.34 -101.43 4997.6 C-101.43 4985.98 -101.43 4974.36 -101.43 4962.74 C-101.44 4942.85 -101.44 4922.96 -101.44 4903.07 C-101.44 4882.8 -101.44 4862.53 -101.45 4842.25 C-101.45 4840.97 -101.45 4839.68 -101.45 4838.36 C-101.45 4833.12 -101.45 4827.89 -101.45 4822.65 C-101.46 4773.4 -101.46 4724.15 -101.47 4674.9 C-101.47 4626.31 -101.47 4577.71 -101.48 4529.11 C-101.48 4526.02 -101.48 4522.92 -101.48 4519.83 C-101.48 4507.34 -101.48 4494.86 -101.49 4482.38 C-101.51 4332.71 -101.52 4183.04 -101.53 4033.37 C-101.53 3982.51 -101.53 3931.66 -101.54 3880.81 C-101.54 3879.08 -101.54 3877.35 -101.54 3875.56 C-101.54 3859.81 -101.54 3844.06 -101.54 3828.31 C-101.55 3650.32 -101.57 3472.33 -101.58 3109.7 C-101.58 3092.76 -101.58 3075.83 -101.58 3058.89 C-101.58 3053.24 -101.58 3047.58 -101.58 3041.93 C-101.59 3006 -101.59 2970.07 -101.59 2934.14 C-101.59 2924.66 -101.59 2915.18 -101.59 2905.7 C-101.59 2726.64 -101.6 2547.58 -101.63 2368.52 C-101.63 2366.64 -101.63 2364.75 -101.63 2362.81 C-101.63 2302.01 -101.64 2241.2 -101.65 2180.4 C-101.66 2121.85 -101.67 2063.3 -101.67 2004.75 C-101.67 2002.89 -101.67 2001.03 -101.67 1999.12 C-101.69 1882.59 -101.7 1766.07 -101.7 1649.55 C-101.7 1647.76 -101.7 1645.96 -101.7 1644.1 C-101.71 1565.09 -101.71 1486.08 -101.71 1407.08 C-101.71 1375.29 -101.71 1343.51 -101.71 1311.72 C-101.71 1306.45 -101.71 1301.18 -101.71 1295.91 C-101.71 1215.27 -101.72 1134.62 -101.73 1053.97 C-101.73 1052.23 -101.73 1050.49 -101.73 1048.7 C-101.74 1020.7 -101.74 992.71 -101.75 964.71 C-101.76 885.27 -101.77 805.83 -101.77 726.39 C-101.77 724.77 -101.77 723.16 -101.77 721.5 C-101.77 686.37 -101.77 651.23 -101.77 616.09 C-101.77 602.08 -101.76 588.07 -101.76 574.05 C-101.76 572.53 -101.76 571 -101.76 569.42 C-101.76 520.89 -101.77 472.35 -101.78 423.81 C-101.8 376.05 -101.8 328.28 -101.79 280.51 C-101.79 273.98 -101.79 267.44 -101.78 260.91 C-101.78 259.63 -101.78 258.35 -101.78 257.03 C-101.78 236.82 -101.79 216.61 -101.8 196.39 C-101.81 176.64 -101.81 156.89 -101.8 137.14 C-101.79 125.6 -101.79 114.07 -101.81 102.53 C-101.82 94.9 -101.82 87.26 -101.8 79.63 C-101.79 75.3 -101.79 70.98 -101.81 66.65 C-101.82 62.73 -101.82 58.81 -101.8 54.88 C-101.79 53.48 -101.8 52.08 -101.81 50.68 C-101.93 32.85 -96.09 17.29 -83.77 4.31 C-79.45 0.15 -74.41 -3.01 -69.29 -6.11 C-68.58 -6.55 -67.88 -6.99 -67.14 -7.45 C-46.08 -19.27 -18.49 -13.76 0 0 Z " fill="#FFFFFF" transform="translate(6012.29296875,1487.11328125)"/>
<path d="M0 0 C3.56 2.85 7.19 5.61 10.82 8.37 C12.23 9.44 13.63 10.51 15.04 11.59 C15.74 12.12 16.43 12.65 17.15 13.19 C20.69 15.89 24.22 18.6 27.76 21.3 C32.05 24.59 36.35 27.87 40.65 31.16 C48.07 36.83 55.49 42.52 62.9 48.22 C69.67 53.43 76.47 58.61 83.26 63.8 C92.15 70.6 101.03 77.4 109.9 84.22 C116.67 89.43 123.47 94.61 130.26 99.8 C139.15 106.6 148.03 113.4 156.9 120.22 C162.94 124.87 169.01 129.5 175.07 134.13 C179.33 137.39 183.6 140.66 187.87 143.92 C191.46 146.67 195.05 149.41 198.65 152.16 C206.07 157.83 213.49 163.52 220.9 169.22 C227.67 174.43 234.47 179.61 241.26 184.8 C250.15 191.6 259.03 198.4 267.9 205.22 C274.67 210.43 281.47 215.61 288.26 220.8 C297.15 227.6 306.03 234.4 314.9 241.22 C321.67 246.43 328.47 251.61 335.26 256.8 C344.15 263.6 353.03 270.4 361.9 277.22 C367.94 281.87 374.01 286.5 380.07 291.13 C384.33 294.39 388.6 297.66 392.87 300.92 C396.46 303.67 400.05 306.41 403.65 309.16 C411.07 314.83 418.49 320.52 425.9 326.22 C432.67 331.43 439.47 336.61 446.26 341.8 C455.15 348.6 464.03 355.4 472.9 362.22 C479.67 367.43 486.47 372.61 493.26 377.8 C502.15 384.6 511.03 391.4 519.9 398.22 C525.94 402.87 532.01 407.5 538.07 412.13 C542.33 415.39 546.6 418.66 550.87 421.92 C554.46 424.67 558.05 427.41 561.65 430.16 C569.07 435.83 576.49 441.52 583.9 447.22 C590.67 452.43 597.47 457.61 604.26 462.8 C613.15 469.6 622.03 476.4 630.9 483.22 C637.67 488.43 644.47 493.61 651.26 498.8 C660.15 505.6 669.03 512.4 677.9 519.22 C684.67 524.43 691.47 529.61 698.26 534.8 C707.15 541.6 716.03 548.4 724.9 555.22 C730.94 559.87 737.01 564.5 743.07 569.13 C747.33 572.39 751.6 575.66 755.87 578.92 C759.46 581.67 763.05 584.41 766.65 587.16 C774.07 592.83 781.49 598.52 788.9 604.22 C795.67 609.43 802.47 614.61 809.26 619.8 C818.15 626.6 827.03 633.4 835.9 640.22 C842.67 645.43 849.47 650.61 856.26 655.8 C865.15 662.6 874.03 669.4 882.9 676.22 C888.94 680.87 895.01 685.5 901.07 690.13 C905.33 693.39 909.6 696.66 913.87 699.92 C917.46 702.67 921.05 705.41 924.65 708.16 C932.07 713.83 939.49 719.52 946.9 725.22 C953.67 730.43 960.47 735.61 967.26 740.8 C976.15 747.6 985.03 754.4 993.9 761.22 C1000.67 766.43 1007.47 771.61 1014.26 776.8 C1023.15 783.6 1032.03 790.4 1040.9 797.22 C1047.67 802.43 1054.47 807.61 1061.26 812.8 C1070.15 819.6 1079.03 826.4 1087.9 833.22 C1093.94 837.87 1100.01 842.5 1106.07 847.13 C1110.33 850.39 1114.6 853.66 1118.87 856.92 C1122.46 859.67 1126.05 862.41 1129.65 865.16 C1137.07 870.83 1144.49 876.52 1151.9 882.22 C1158.67 887.43 1165.47 892.61 1172.26 897.8 C1181.15 904.6 1190.03 911.4 1198.9 918.22 C1205.67 923.43 1212.47 928.61 1219.26 933.8 C1228.15 940.6 1237.03 947.4 1245.9 954.22 C1251.94 958.87 1258.01 963.5 1264.07 968.13 C1268.33 971.39 1272.6 974.66 1276.87 977.92 C1280.46 980.67 1284.05 983.41 1287.65 986.16 C1295.07 991.83 1302.49 997.52 1309.9 1003.22 C1313.76 1006.19 1317.63 1009.16 1321.51 1012.12 C1322.22 1012.66 1322.93 1013.21 1323.67 1013.77 C1327.33 1016.57 1330.99 1019.36 1334.66 1022.14 C1354.81 1037.39 1374.74 1053.72 1390.26 1073.8 C1390.78 1074.48 1391.3 1075.15 1391.84 1075.84 C1430.92 1126.54 1446.46 1184.96 1446.38 1248.3 C1446.38 1250.33 1446.38 1252.36 1446.39 1254.4 C1446.39 1259.97 1446.39 1265.55 1446.39 1271.12 C1446.38 1277.21 1446.39 1283.3 1446.39 1289.4 C1446.39 1300.11 1446.39 1310.82 1446.39 1321.54 C1446.39 1333.09 1446.39 1344.64 1446.39 1356.2 C1446.39 1356.93 1446.39 1357.66 1446.39 1358.42 C1446.39 1362.16 1446.39 1365.91 1446.39 1369.65 C1446.4 1396.99 1446.4 1424.32 1446.4 1451.66 C1446.4 1479.36 1446.4 1507.07 1446.41 1534.77 C1446.41 1536.54 1446.41 1538.31 1446.41 1540.07 C1446.41 1547.2 1446.41 1554.32 1446.41 1561.45 C1446.41 1581.53 1446.41 1601.61 1446.42 1621.69 C1446.42 1623.07 1446.42 1623.07 1446.42 1624.48 C1446.42 1676.81 1446.42 1729.14 1446.42 1781.46 C1446.42 1789.46 1446.42 1797.46 1446.42 1805.46 C1446.42 1807.47 1446.42 1809.47 1446.42 1811.47 C1446.42 1856.47 1446.43 1901.46 1446.43 1946.45 C1446.43 1956.49 1446.43 1966.53 1446.43 1976.57 C1446.43 1977.57 1446.43 1978.56 1446.43 1979.59 C1446.43 1985.64 1446.43 1991.69 1446.43 1997.74 C1446.43 2000.77 1446.43 2003.8 1446.43 2006.83 C1446.43 2053.95 1446.44 2101.08 1446.44 2148.2 C1446.44 2149.22 1446.44 2150.25 1446.44 2151.31 C1446.44 2216.73 1446.44 2282.15 1446.44 2347.58 C1446.44 2350.79 1446.44 2354.01 1446.44 2357.23 C1446.44 2379.83 1446.44 2402.43 1446.44 2425.03 C1446.44 2431.51 1446.44 2437.99 1446.44 2444.47 C1446.44 2449.87 1446.44 2455.28 1446.44 2460.68 C1446.44 2562.79 1446.44 2664.9 1446.45 2767.01 C1446.45 2768.09 1446.45 2769.16 1446.45 2770.27 C1446.45 2803.87 1446.46 2837.47 1446.46 2871.06 C1446.46 2905.54 1446.47 2940.01 1446.47 2974.49 C1446.47 2976.08 1446.47 2976.08 1446.47 2977.7 C1446.48 3044.17 1446.48 3110.63 1446.48 3177.09 C1446.48 3178.12 1446.48 3179.15 1446.48 3180.2 C1446.48 3225.27 1446.48 3270.34 1446.48 3315.42 C1446.48 3333.55 1446.48 3351.68 1446.48 3369.81 C1446.48 3372.81 1446.48 3375.82 1446.48 3378.83 C1446.48 3424.82 1446.49 3470.82 1446.49 3516.81 C1446.49 3517.8 1446.49 3518.8 1446.49 3519.82 C1446.49 3535.78 1446.5 3551.74 1446.5 3567.7 C1446.5 3613 1446.51 3658.3 1446.51 3703.6 C1446.51 3704.52 1446.51 3705.44 1446.51 3706.39 C1446.51 3726.43 1446.5 3746.47 1446.5 3766.51 C1446.5 3774.51 1446.5 3782.5 1446.5 3790.49 C1446.5 3791.36 1446.5 3792.24 1446.5 3793.13 C1446.5 3820.81 1446.5 3848.48 1446.51 3876.15 C1446.51 3903.39 1446.52 3930.63 1446.51 3957.87 C1446.51 3961.6 1446.51 3965.33 1446.5 3969.05 C1446.5 3969.78 1446.5 3970.51 1446.5 3971.27 C1446.5 3982.79 1446.51 3994.31 1446.51 4005.83 C1446.52 4017.09 1446.52 4028.36 1446.51 4039.62 C1446.51 4045.62 1446.5 4051.62 1446.51 4057.62 C1446.52 4063.07 1446.52 4068.51 1446.51 4073.95 C1446.51 4075.9 1446.51 4077.86 1446.51 4079.81 C1446.57 4100.45 1444.31 4118.48 1429.88 4134.43 C1429.01 4135.21 1428.15 4136 1427.26 4136.8 C1426.63 4137.42 1426.01 4138.03 1425.37 4138.67 C1413.95 4149.55 1398.89 4154.77 1383.26 4155.3 C1363.05 4154.61 1348.69 4144.81 1333.26 4132.8 C1332.19 4131.97 1332.19 4131.97 1331.1 4131.13 C1328.15 4128.83 1325.2 4126.54 1322.26 4124.23 C1316.56 4119.79 1310.8 4115.44 1305.01 4111.12 C1298.74 4106.44 1292.53 4101.71 1286.4 4096.86 C1279.82 4091.65 1273.13 4086.57 1266.45 4081.47 C1262.8 4078.69 1259.15 4075.9 1255.51 4073.12 C1254.79 4072.57 1254.08 4072.03 1253.35 4071.47 C1248.1 4067.45 1242.86 4063.43 1237.63 4059.4 C1233.68 4056.36 1229.72 4053.33 1225.76 4050.3 C1220.75 4046.48 1215.75 4042.65 1210.76 4038.8 C1202.94 4032.78 1195.1 4026.79 1187.26 4020.8 C1178.37 4014.01 1169.48 4007.21 1160.61 4000.39 C1153.84 3995.18 1147.05 3989.99 1140.26 3984.8 C1131.37 3978.01 1122.48 3971.21 1113.61 3964.39 C1106.84 3959.18 1100.05 3953.99 1093.26 3948.8 C1084.37 3942.01 1075.48 3935.21 1066.61 3928.39 C1059.84 3923.18 1053.05 3917.99 1046.26 3912.8 C1037.37 3906.01 1028.48 3899.21 1019.61 3892.39 C1012.84 3887.18 1006.05 3881.99 999.26 3876.8 C990.37 3870.01 981.48 3863.21 972.61 3856.39 C965.84 3851.18 959.05 3845.99 952.26 3840.8 C943.37 3834.01 934.48 3827.21 925.61 3820.39 C918.84 3815.18 912.05 3809.99 905.26 3804.8 C896.37 3798.01 887.49 3791.22 878.63 3784.4 C874.68 3781.36 870.72 3778.33 866.76 3775.3 C861.75 3771.48 856.75 3767.65 851.76 3763.8 C843.94 3757.78 836.1 3751.79 828.26 3745.8 C819.37 3739.01 810.48 3732.21 801.61 3725.39 C794.84 3720.18 788.05 3714.99 781.26 3709.8 C772.37 3703.01 763.48 3696.21 754.61 3689.39 C747.84 3684.18 741.05 3678.99 734.26 3673.8 C725.37 3667.01 716.48 3660.21 707.61 3653.39 C700.84 3648.18 694.05 3642.99 687.26 3637.8 C678.37 3631.01 669.48 3624.21 660.61 3617.39 C653.84 3612.18 647.05 3606.99 640.26 3601.8 C631.37 3595.01 622.48 3588.21 613.61 3581.39 C606.84 3576.18 600.05 3570.99 593.26 3565.8 C584.37 3559.01 575.49 3552.22 566.63 3545.4 C562.68 3542.36 558.72 3539.33 554.76 3536.3 C549.75 3532.48 544.75 3528.65 539.76 3524.8 C531.94 3518.78 524.1 3512.79 516.26 3506.8 C507.37 3500.01 498.48 3493.21 489.61 3486.39 C482.84 3481.18 476.05 3475.99 469.26 3470.8 C460.37 3464.01 451.48 3457.21 442.61 3450.39 C435.84 3445.18 429.05 3439.99 422.26 3434.8 C413.37 3428.01 404.48 3421.21 395.61 3414.39 C388.84 3409.18 382.05 3403.99 375.26 3398.8 C366.37 3392.01 357.48 3385.21 348.61 3378.39 C341.84 3373.18 335.05 3367.99 328.26 3362.8 C319.37 3356.01 310.48 3349.21 301.61 3342.39 C294.84 3337.18 288.05 3331.99 281.26 3326.8 C272.37 3320.01 263.48 3313.21 254.61 3306.39 C247.84 3301.18 241.05 3295.99 234.26 3290.8 C225.37 3284.01 216.49 3277.22 207.63 3270.4 C203.68 3267.36 199.72 3264.33 195.76 3261.3 C190.75 3257.48 185.75 3253.65 180.76 3249.8 C172.94 3243.78 165.1 3237.79 157.26 3231.8 C148.37 3225.01 139.48 3218.21 130.61 3211.39 C123.84 3206.18 117.05 3200.99 110.26 3195.8 C101.37 3189.01 92.48 3182.21 83.61 3175.39 C76.84 3170.18 70.05 3164.99 63.26 3159.8 C54.37 3153.01 45.48 3146.21 36.61 3139.39 C29.84 3134.18 23.05 3128.99 16.26 3123.8 C11.23 3119.97 6.21 3116.13 1.2 3112.29 C-0.58 3110.93 -2.36 3109.57 -4.14 3108.22 C-36.27 3083.7 -36.27 3083.7 -46.99 3070.86 C-48.26 3069.37 -49.58 3067.92 -50.93 3066.5 C-68.11 3048.39 -81.25 3026.35 -91.74 3003.8 C-92.25 3002.73 -92.76 3001.65 -93.28 3000.55 C-103.01 2978.97 -109.18 2955.95 -112.49 2932.55 C-112.61 2931.74 -112.73 2930.93 -112.85 2930.09 C-114.85 2914.53 -114.89 2898.83 -114.87 2883.18 C-114.87 2881.14 -114.88 2879.1 -114.88 2877.07 C-114.88 2871.49 -114.88 2865.92 -114.88 2860.34 C-114.88 2854.24 -114.88 2848.15 -114.88 2842.05 C-114.89 2831.33 -114.89 2820.61 -114.89 2809.89 C-114.88 2798.33 -114.89 2786.78 -114.89 2775.22 C-114.89 2774.48 -114.89 2773.75 -114.89 2772.99 C-114.89 2769.25 -114.89 2765.5 -114.89 2761.75 C-114.9 2734.4 -114.9 2707.05 -114.9 2679.7 C-114.9 2651.98 -114.91 2624.26 -114.91 2596.55 C-114.91 2594.78 -114.91 2593.01 -114.91 2591.24 C-114.91 2584.11 -114.92 2576.98 -114.92 2569.86 C-114.93 2491.48 -114.94 2413.1 -114.94 2334.72 C-114.94 2333.73 -114.94 2332.74 -114.94 2331.72 C-114.94 2326.71 -114.94 2321.69 -114.95 2316.68 C-114.95 2274.67 -114.95 2232.66 -114.96 2190.65 C-114.96 2170.53 -114.96 2150.41 -114.96 2130.29 C-114.96 2129.29 -114.96 2128.28 -114.96 2127.25 C-114.97 2079.09 -114.97 2030.93 -114.97 1982.77 C-114.97 1981.74 -114.97 1980.71 -114.97 1979.66 C-114.98 1914.19 -114.98 1848.73 -114.98 1783.27 C-114.98 1777.91 -114.98 1772.54 -114.98 1767.17 C-114.98 1758.57 -114.98 1749.97 -114.98 1741.36 C-114.98 1740.3 -114.98 1739.23 -114.98 1738.13 C-114.98 1735.98 -114.98 1733.82 -114.98 1731.67 C-114.98 1716.55 -114.98 1701.44 -114.98 1686.33 C-114.98 1680.92 -114.98 1675.51 -114.99 1670.1 C-114.99 1567.93 -114.99 1465.77 -115.01 1363.6 C-115.01 1362.53 -115.01 1361.45 -115.01 1360.34 C-115.01 1326.73 -115.02 1293.11 -115.03 1259.49 C-115.03 1225 -115.04 1190.51 -115.04 1156.02 C-115.04 1154.95 -115.04 1153.89 -115.04 1152.8 C-115.05 1086.3 -115.06 1019.79 -115.06 953.29 C-115.06 952.26 -115.06 951.24 -115.06 950.18 C-115.07 905.08 -115.07 859.98 -115.07 814.88 C-115.07 796.74 -115.07 778.6 -115.07 760.46 C-115.07 757.45 -115.07 754.44 -115.07 751.43 C-115.07 705.41 -115.07 659.39 -115.08 613.37 C-115.08 612.38 -115.08 611.38 -115.08 610.36 C-115.09 594.39 -115.09 578.42 -115.09 562.45 C-115.1 517.13 -115.11 471.81 -115.11 426.48 C-115.11 425.56 -115.11 424.64 -115.11 423.7 C-115.11 403.64 -115.11 383.59 -115.1 363.53 C-115.1 355.53 -115.1 347.53 -115.1 339.54 C-115.1 338.66 -115.1 337.79 -115.1 336.89 C-115.1 309.21 -115.11 281.52 -115.12 253.84 C-115.13 226.58 -115.13 199.32 -115.12 172.07 C-115.12 168.34 -115.12 164.61 -115.12 160.87 C-115.11 160.14 -115.11 159.41 -115.11 158.66 C-115.11 147.14 -115.12 135.61 -115.13 124.09 C-115.14 112.81 -115.14 101.54 -115.12 90.27 C-115.12 84.27 -115.12 78.27 -115.13 72.26 C-115.14 66.82 -115.14 61.37 -115.12 55.92 C-115.12 53.97 -115.12 52.02 -115.13 50.06 C-115.18 36.42 -114.74 23.05 -108.24 10.68 C-107.9 10.02 -107.56 9.35 -107.21 8.67 C-98.8 -6.84 -85.03 -16.64 -68.39 -21.95 C-41.32 -28.64 -20.31 -16.38 0 0 Z " fill="#FFFFFF" transform="translate(4021.74462890625,885.1962890625)"/>
<path d="M0 0 C4.9 3.85 9.88 7.59 14.88 11.31 C22.08 16.69 29.21 22.15 36.3 27.68 C43.42 33.24 50.59 38.73 57.77 44.2 C61.31 46.9 64.84 49.61 68.38 52.31 C72.68 55.6 76.97 58.88 81.27 62.17 C88.7 67.84 96.11 73.53 103.52 79.23 C110.29 84.44 117.09 89.62 123.88 94.81 C132.77 101.61 141.65 108.41 150.52 115.23 C156.57 119.88 162.63 124.51 168.69 129.14 C172.96 132.4 177.23 135.67 181.49 138.93 C185.09 141.68 188.68 144.42 192.27 147.17 C199.7 152.84 207.11 158.53 214.52 164.23 C221.29 169.44 228.09 174.62 234.88 179.81 C243.77 186.61 252.65 193.41 261.52 200.23 C268.29 205.44 275.09 210.62 281.88 215.81 C290.77 222.61 299.65 229.41 308.52 236.23 C314.57 240.88 320.63 245.51 326.69 250.14 C330.96 253.4 335.23 256.67 339.49 259.93 C343.09 262.68 346.68 265.42 350.27 268.17 C357.7 273.84 365.11 279.53 372.52 285.23 C379.29 290.44 386.09 295.62 392.88 300.81 C401.77 307.61 410.65 314.41 419.52 321.23 C426.29 326.44 433.09 331.62 439.88 336.81 C448.77 343.61 457.65 350.41 466.52 357.23 C473.29 362.44 480.09 367.62 486.88 372.81 C495.77 379.61 504.65 386.41 513.52 393.23 C519.57 397.88 525.63 402.51 531.69 407.14 C535.96 410.4 540.23 413.67 544.49 416.93 C548.09 419.68 551.68 422.42 555.27 425.17 C562.7 430.84 570.11 436.53 577.52 442.23 C584.29 447.44 591.09 452.62 597.88 457.81 C606.77 464.61 615.65 471.41 624.52 478.23 C631.29 483.44 638.09 488.62 644.88 493.81 C653.77 500.61 662.65 507.41 671.52 514.23 C677.57 518.88 683.63 523.51 689.69 528.14 C693.96 531.4 698.23 534.67 702.49 537.93 C706.09 540.68 709.68 543.42 713.27 546.17 C720.7 551.84 728.11 557.53 735.52 563.23 C742.29 568.44 749.09 573.62 755.88 578.81 C764.77 585.61 773.65 592.41 782.52 599.23 C789.29 604.44 796.09 609.62 802.88 614.81 C811.77 621.61 820.65 628.41 829.52 635.23 C836.29 640.44 843.09 645.62 849.88 650.81 C858.77 657.61 867.65 664.41 876.52 671.23 C882.57 675.88 888.63 680.51 894.69 685.14 C898.96 688.4 903.23 691.67 907.49 694.93 C911.09 697.68 914.68 700.42 918.27 703.17 C925.7 708.84 933.11 714.53 940.52 720.23 C947.29 725.44 954.09 730.62 960.88 735.81 C969.77 742.61 978.65 749.41 987.52 756.23 C994.29 761.44 1001.09 766.62 1007.88 771.81 C1016.77 778.61 1025.65 785.41 1034.52 792.23 C1040.57 796.88 1046.63 801.51 1052.69 806.14 C1056.96 809.4 1061.23 812.67 1065.49 815.93 C1069.09 818.68 1072.68 821.42 1076.27 824.17 C1083.7 829.84 1091.11 835.53 1098.52 841.23 C1105.29 846.44 1112.09 851.62 1118.88 856.81 C1127.77 863.61 1136.65 870.41 1145.52 877.23 C1152.29 882.44 1159.09 887.62 1165.88 892.81 C1174.77 899.61 1183.65 906.41 1192.52 913.23 C1199.29 918.44 1206.09 923.62 1212.88 928.81 C1221.77 935.61 1230.65 942.41 1239.52 949.23 C1245.57 953.88 1251.63 958.51 1257.69 963.14 C1261.96 966.4 1266.23 969.67 1270.49 972.93 C1274.09 975.68 1277.68 978.42 1281.27 981.17 C1288.7 986.84 1296.11 992.53 1303.52 998.23 C1307.38 1001.2 1311.26 1004.16 1315.13 1007.12 C1315.84 1007.67 1316.56 1008.22 1317.29 1008.78 C1320.94 1011.57 1324.6 1014.36 1328.25 1017.14 C1332.47 1020.36 1336.68 1023.58 1340.88 1026.81 C1341.52 1027.31 1342.16 1027.8 1342.82 1028.31 C1349.6 1033.53 1356.22 1038.83 1362.52 1044.64 C1364.12 1046.12 1365.75 1047.58 1367.4 1049.02 C1373.36 1054.25 1378.71 1059.8 1383.88 1065.81 C1384.66 1066.7 1385.44 1067.6 1386.24 1068.52 C1424.7 1113.42 1446.28 1171.32 1446.13 1230.35 C1446.13 1232.4 1446.14 1234.45 1446.14 1236.5 C1446.15 1242.12 1446.15 1247.75 1446.14 1253.38 C1446.13 1259.52 1446.14 1265.67 1446.15 1271.81 C1446.15 1282.62 1446.16 1293.44 1446.15 1304.25 C1446.15 1315.9 1446.15 1327.56 1446.15 1339.22 C1446.15 1339.96 1446.15 1340.7 1446.15 1341.46 C1446.15 1345.24 1446.16 1349.02 1446.16 1352.8 C1446.17 1380.38 1446.17 1407.96 1446.17 1435.55 C1446.17 1463.5 1446.17 1491.46 1446.18 1519.42 C1446.18 1521.2 1446.18 1522.98 1446.18 1524.76 C1446.18 1531.95 1446.18 1539.14 1446.19 1546.33 C1446.19 1566.59 1446.2 1586.85 1446.2 1607.12 C1446.2 1608.51 1446.2 1608.51 1446.2 1609.93 C1446.21 1662.73 1446.21 1715.54 1446.21 1768.34 C1446.21 1776.41 1446.21 1784.49 1446.21 1792.56 C1446.21 1794.58 1446.21 1796.6 1446.21 1798.63 C1446.21 1844.03 1446.22 1889.43 1446.22 1934.83 C1446.22 1944.96 1446.23 1955.09 1446.23 1965.22 C1446.23 1966.23 1446.23 1967.23 1446.23 1968.27 C1446.23 1974.37 1446.23 1980.48 1446.23 1986.58 C1446.23 1989.64 1446.23 1992.7 1446.23 1995.76 C1446.24 2043.31 1446.24 2090.85 1446.24 2138.4 C1446.24 2139.44 1446.24 2140.47 1446.24 2141.54 C1446.25 2207.56 1446.25 2273.57 1446.25 2339.59 C1446.25 2342.84 1446.25 2346.08 1446.25 2349.33 C1446.25 2372.14 1446.25 2394.94 1446.25 2417.75 C1446.25 2424.29 1446.25 2430.83 1446.25 2437.37 C1446.25 2442.82 1446.25 2448.27 1446.25 2453.73 C1446.25 2556.77 1446.25 2659.8 1446.27 2762.84 C1446.27 2763.93 1446.27 2765.01 1446.27 2766.13 C1446.28 2800.03 1446.28 2833.93 1446.29 2867.83 C1446.3 2902.62 1446.3 2937.4 1446.31 2972.19 C1446.31 2973.8 1446.31 2973.8 1446.31 2975.44 C1446.32 3042.5 1446.33 3109.57 1446.33 3176.63 C1446.33 3177.67 1446.33 3178.71 1446.33 3179.77 C1446.34 3225.25 1446.34 3270.73 1446.34 3316.21 C1446.34 3334.51 1446.34 3352.8 1446.34 3371.1 C1446.34 3374.13 1446.34 3377.17 1446.34 3380.2 C1446.34 3426.61 1446.34 3473.02 1446.35 3519.44 C1446.35 3520.44 1446.35 3521.44 1446.35 3522.47 C1446.36 3538.58 1446.36 3554.68 1446.36 3570.79 C1446.38 3616.5 1446.39 3662.21 1446.38 3707.92 C1446.38 3708.85 1446.38 3709.78 1446.38 3710.73 C1446.38 3730.96 1446.38 3751.18 1446.37 3771.41 C1446.37 3779.47 1446.37 3787.54 1446.37 3795.6 C1446.37 3796.48 1446.37 3797.36 1446.37 3798.27 C1446.36 3826.19 1446.37 3854.12 1446.38 3882.04 C1446.4 3909.53 1446.4 3937.01 1446.38 3964.5 C1446.38 3968.26 1446.38 3972.03 1446.38 3975.79 C1446.38 3976.53 1446.38 3977.26 1446.38 3978.02 C1446.37 3989.65 1446.38 4001.27 1446.39 4012.9 C1446.41 4024.26 1446.4 4035.63 1446.39 4047 C1446.38 4053.05 1446.38 4059.11 1446.39 4065.16 C1446.41 4070.65 1446.4 4076.15 1446.38 4081.64 C1446.38 4083.61 1446.38 4085.58 1446.39 4087.55 C1446.49 4106.74 1442.76 4122.25 1429.08 4136.6 C1428.35 4137.33 1427.63 4138.06 1426.88 4138.81 C1426.34 4139.38 1425.8 4139.94 1425.24 4140.52 C1413.25 4151.97 1396.64 4155.32 1380.67 4155.23 C1363.5 4154.76 1350.82 4146.68 1337.73 4136.27 C1334.31 4133.57 1330.84 4130.95 1327.38 4128.31 C1319.45 4122.26 1319.45 4122.26 1315.61 4119.29 C1309.1 4114.26 1302.53 4109.3 1295.94 4104.38 C1289.58 4099.62 1283.26 4094.81 1277.03 4089.87 C1270.44 4084.66 1263.75 4079.58 1257.07 4074.48 C1253.42 4071.7 1249.77 4068.91 1246.13 4066.12 C1245.42 4065.58 1244.71 4065.04 1243.97 4064.48 C1238.72 4060.46 1233.48 4056.43 1228.24 4052.39 C1221.46 4047.18 1214.67 4042 1207.88 4036.81 C1198.99 4030.02 1190.1 4023.22 1181.24 4016.39 C1175.19 4011.74 1169.13 4007.12 1163.07 4002.49 C1158.8 3999.22 1154.53 3995.96 1150.26 3992.69 C1146.67 3989.95 1143.08 3987.2 1139.49 3984.46 C1132.06 3978.78 1124.64 3973.1 1117.24 3967.39 C1110.46 3962.18 1103.67 3957 1096.88 3951.81 C1087.99 3945.02 1079.1 3938.22 1070.24 3931.39 C1063.46 3926.18 1056.67 3921 1049.88 3915.81 C1040.99 3909.02 1032.1 3902.22 1023.24 3895.39 C1017.19 3890.74 1011.13 3886.12 1005.07 3881.49 C1000.8 3878.22 996.53 3874.96 992.26 3871.69 C988.67 3868.95 985.08 3866.2 981.49 3863.46 C974.06 3857.78 966.64 3852.1 959.24 3846.39 C952.46 3841.18 945.67 3836 938.88 3830.81 C929.99 3824.02 921.1 3817.22 912.24 3810.39 C905.46 3805.18 898.67 3800 891.88 3794.81 C882.99 3788.02 874.1 3781.22 865.24 3774.39 C858.46 3769.18 851.67 3764 844.88 3758.81 C835.99 3752.02 827.1 3745.22 818.24 3738.39 C812.19 3733.74 806.13 3729.12 800.07 3724.49 C795.8 3721.22 791.53 3717.96 787.26 3714.69 C783.67 3711.95 780.08 3709.2 776.49 3706.46 C769.06 3700.78 761.64 3695.1 754.24 3689.39 C747.46 3684.18 740.67 3679 733.88 3673.81 C724.99 3667.02 716.1 3660.22 707.24 3653.39 C700.46 3648.18 693.67 3643 686.88 3637.81 C677.99 3631.02 669.1 3624.22 660.24 3617.39 C654.19 3612.74 648.13 3608.12 642.07 3603.49 C637.8 3600.22 633.53 3596.96 629.26 3593.69 C625.67 3590.95 622.08 3588.2 618.49 3585.46 C611.06 3579.78 603.64 3574.1 596.24 3568.39 C589.46 3563.18 582.67 3558 575.88 3552.81 C566.99 3546.02 558.1 3539.22 549.24 3532.39 C542.46 3527.18 535.67 3522 528.88 3516.81 C519.99 3510.02 511.1 3503.22 502.24 3496.39 C495.46 3491.18 488.67 3486 481.88 3480.81 C472.99 3474.02 464.1 3467.22 455.24 3460.39 C449.19 3455.74 443.13 3451.12 437.07 3446.49 C432.8 3443.22 428.53 3439.96 424.26 3436.69 C420.67 3433.95 417.08 3431.2 413.49 3428.46 C406.06 3422.78 398.64 3417.1 391.24 3411.39 C384.46 3406.18 377.67 3401 370.88 3395.81 C361.99 3389.02 353.1 3382.22 344.24 3375.39 C337.46 3370.18 330.67 3365 323.88 3359.81 C314.99 3353.02 306.1 3346.22 297.24 3339.39 C291.19 3334.74 285.13 3330.12 279.07 3325.49 C274.8 3322.22 270.53 3318.96 266.26 3315.69 C262.67 3312.95 259.08 3310.2 255.49 3307.46 C248.06 3301.78 240.64 3296.1 233.24 3290.39 C226.46 3285.18 219.67 3280 212.88 3274.81 C203.99 3268.02 195.1 3261.22 186.24 3254.39 C179.46 3249.18 172.67 3244 165.88 3238.81 C156.99 3232.02 148.1 3225.22 139.24 3218.39 C132.46 3213.18 125.67 3208 118.88 3202.81 C109.99 3196.02 101.1 3189.22 92.24 3182.39 C86.19 3177.74 80.13 3173.12 74.07 3168.49 C69.8 3165.22 65.53 3161.96 61.26 3158.69 C57.67 3155.95 54.08 3153.2 50.49 3150.46 C43.06 3144.78 35.64 3139.1 28.24 3133.39 C24.37 3130.42 20.5 3127.46 16.63 3124.5 C15.56 3123.68 15.56 3123.68 14.47 3122.85 C10.77 3120.02 7.07 3117.2 3.37 3114.38 C-10.54 3103.78 -10.54 3103.78 -16.65 3098.82 C-18.28 3097.49 -19.93 3096.17 -21.58 3094.86 C-28.62 3089.23 -35.14 3083.2 -41.5 3076.81 C-42.25 3076.06 -42.25 3076.06 -43.01 3075.3 C-51.56 3066.72 -59.23 3057.78 -66.12 3047.81 C-66.57 3047.18 -67.01 3046.55 -67.47 3045.89 C-74.02 3036.57 -79.74 3026.85 -85.12 3016.81 C-85.46 3016.19 -85.8 3015.57 -86.14 3014.94 C-102.39 2984.95 -113.35 2948.37 -113.25 2914.08 C-113.25 2913.24 -113.25 2912.41 -113.25 2911.54 C-113.26 2908.74 -113.25 2905.94 -113.25 2903.14 C-113.25 2901.1 -113.25 2899.06 -113.26 2897.02 C-113.26 2891.38 -113.26 2885.75 -113.26 2880.11 C-113.26 2873.97 -113.26 2867.83 -113.27 2861.68 C-113.27 2850.87 -113.27 2840.05 -113.27 2829.23 C-113.27 2817.56 -113.28 2805.89 -113.28 2794.22 C-113.28 2793.48 -113.28 2792.74 -113.28 2791.98 C-113.28 2788.96 -113.28 2785.95 -113.29 2782.93 C-113.3 2754.58 -113.3 2726.22 -113.31 2697.86 C-113.31 2669.89 -113.32 2641.91 -113.33 2613.93 C-113.33 2612.15 -113.33 2610.36 -113.33 2608.58 C-113.33 2601.39 -113.33 2594.2 -113.33 2587.02 C-113.36 2499.83 -113.38 2412.64 -113.39 2325.45 C-113.39 2298.19 -113.4 2270.93 -113.4 2243.67 C-113.4 2234.6 -113.41 2225.53 -113.41 2216.46 C-113.41 2214.97 -113.41 2214.97 -113.41 2213.44 C-113.42 2110.99 -113.44 2008.54 -113.46 1799.82 C-113.46 1787.9 -113.46 1775.98 -113.46 1764.06 C-113.46 1762.98 -113.46 1761.91 -113.46 1760.8 C-113.47 1739.03 -113.47 1717.25 -113.47 1695.48 C-113.47 1690.02 -113.47 1684.56 -113.47 1679.1 C-113.48 1576 -113.49 1472.9 -113.52 1369.79 C-113.52 1368.71 -113.52 1367.62 -113.52 1366.5 C-113.53 1330.4 -113.54 1294.31 -113.56 1258.21 C-113.56 1225.59 -113.57 1192.97 -113.58 1160.35 C-113.58 1158.75 -113.58 1158.75 -113.58 1157.11 C-113.6 1090.01 -113.62 1022.91 -113.62 955.81 C-113.62 954.78 -113.62 953.74 -113.62 952.67 C-113.63 907.17 -113.63 861.66 -113.63 816.16 C-113.63 797.85 -113.63 779.55 -113.63 761.24 C-113.63 758.21 -113.63 755.17 -113.63 752.14 C-113.64 705.7 -113.64 659.26 -113.66 612.82 C-113.66 611.82 -113.66 610.82 -113.66 609.79 C-113.67 593.67 -113.67 577.56 -113.68 561.45 C-113.7 515.71 -113.72 469.97 -113.71 424.23 C-113.71 423.3 -113.71 422.38 -113.71 421.42 C-113.71 401.18 -113.71 380.94 -113.71 360.7 C-113.71 352.63 -113.71 344.56 -113.7 336.48 C-113.7 335.6 -113.7 334.72 -113.7 333.81 C-113.7 305.88 -113.71 277.94 -113.73 250 C-113.75 222.49 -113.76 194.98 -113.74 167.48 C-113.74 163.71 -113.74 159.94 -113.73 156.18 C-113.73 155.07 -113.73 155.07 -113.73 153.94 C-113.73 142.31 -113.74 130.68 -113.75 119.05 C-113.77 107.67 -113.77 96.3 -113.75 84.92 C-113.74 78.86 -113.74 72.81 -113.76 66.75 C-113.78 61.25 -113.77 55.75 -113.75 50.26 C-113.75 48.29 -113.75 46.32 -113.76 44.35 C-113.87 27.7 -111.26 14.56 -101.12 0.81 C-100.66 0.17 -100.2 -0.47 -99.73 -1.14 C-91.22 -12.05 -76.76 -20.23 -63.12 -22.19 C-62.45 -22.31 -61.78 -22.43 -61.09 -22.55 C-36.24 -26.35 -18.64 -14.68 0 0 Z " fill="#FFFFFF" transform="translate(4021.12109375,4504.1875)"/>
</svg>
