<?xml version="1.0" standalone="no"?>
<!DOCTYPE svg PUBLIC "-//W3C//DTD SVG 20010904//EN"
 "http://www.w3.org/TR/2001/REC-SVG-20010904/DTD/svg10.dtd">
<svg version="1.0" xmlns="http://www.w3.org/2000/svg"
 width="9375.000000pt" height="9375.000000pt" viewBox="0 0 9375.000000 9375.000000"
 preserveAspectRatio="xMidYMid meet">

<g transform="translate(0.000000,9375.000000) scale(0.100000,-0.100000)"
fill="#000000" stroke="none">
<path d="M39610 85120 c-247 -34 -454 -220 -515 -465 -13 -54 -15 -1636 -12
-14535 3 -13100 5 -14483 19 -14560 33 -179 51 -259 84 -367 149 -492 444
-933 836 -1246 51 -41 3153 -2418 6893 -5283 4306 -3298 6824 -5220 6865
-5241 163 -83 363 -85 540 -6 158 71 291 237 334 418 16 65 17 1090 14 14525
-3 13594 -4 14461 -21 14558 -80 482 -251 878 -536 1237 -87 110 -263 285
-379 379 -353 282 -13698 10492 -13752 10520 -116 61 -240 83 -370 66z"/>
<path d="M19573 79000 c-189 -26 -378 -166 -463 -342 -22 -44 -44 -103 -50
-131 -7 -37 -9 -7477 -7 -25222 3 -23087 5 -25177 19 -25255 61 -322 122 -510
243 -751 142 -284 320 -522 539 -722 108 -98 13706 -10524 13842 -10613 102
-67 186 -89 329 -88 131 1 213 22 312 80 116 67 221 199 270 339 l28 80 0
25125 c0 20616 -2 25144 -13 25230 -72 575 -325 1104 -717 1495 -66 66 -154
148 -195 181 -41 33 -3142 2409 -6890 5280 -4729 3621 -6837 5230 -6886 5254
-109 55 -239 77 -361 60z"/>
<path d="M59636 78999 c-136 -18 -292 -107 -382 -217 -60 -72 -110 -178 -129
-269 -13 -64 -15 -2940 -12 -25200 l3 -25128 21 -127 c78 -460 256 -865 530
-1211 86 -108 256 -280 363 -367 188 -152 13696 -10495 13748 -10527 175 -105
396 -110 591 -12 136 68 234 176 295 327 l31 77 0 25180 c0 24284 -1 25184
-18 25293 -73 454 -243 845 -526 1207 -77 99 -280 303 -386 389 -172 139
-13679 10479 -13727 10508 -105 65 -265 95 -402 77z"/>
<path d="M39554 48915 c-118 -25 -267 -121 -342 -218 -49 -63 -96 -160 -117
-242 -13 -55 -15 -1540 -12 -14525 2 -13901 3 -14469 20 -14570 57 -328 131
-557 264 -810 160 -305 386 -583 644 -791 193 -156 13686 -10484 13736 -10515
93 -56 183 -79 308 -78 125 0 214 25 322 88 130 76 244 235 278 388 14 67 15
1335 13 14528 -3 13854 -4 14459 -21 14560 -81 474 -229 822 -506 1189 -101
135 -278 316 -411 422 -52 42 -3153 2418 -6890 5280 -5027 3850 -6815 5214
-6870 5241 -41 21 -102 45 -135 53 -72 18 -198 18 -281 0z"/>
</g>
</svg>
