<?xml version="1.0" standalone="no"?>
<!DOCTYPE svg PUBLIC "-//W3C//DTD SVG 20010904//EN"
 "http://www.w3.org/TR/2001/REC-SVG-20010904/DTD/svg10.dtd">
<svg version="1.0" xmlns="http://www.w3.org/2000/svg"
 width="12500.000000pt" height="3125.000000pt" viewBox="0 0 12500.000000 3125.000000"
 preserveAspectRatio="xMidYMid meet">

<g transform="translate(0.000000,3125.000000) scale(0.100000,-0.100000)"
fill="#000000" stroke="none">
<path d="M11861 27856 c-48 -17 -108 -71 -134 -119 l-22 -42 -3 -4465 c-2
-3167 1 -4489 8 -4549 28 -211 128 -417 279 -572 67 -69 4182 -3228 4269
-3277 117 -66 269 -20 335 103 l22 40 0 4515 0 4515 -27 100 c-52 190 -163
375 -296 495 -37 33 -1005 777 -2151 1655 -1377 1054 -2096 1598 -2120 1605
-47 13 -118 12 -160 -4z"/>
<path d="M5542 25922 c-61 -22 -104 -60 -135 -117 l-22 -40 0 -7890 0 -7890
22 -81 c49 -187 145 -356 269 -477 63 -62 4185 -3225 4260 -3269 43 -26 132
-34 188 -18 56 15 119 68 149 124 l22 41 3 7815 c2 5598 0 7843 -8 7912 -6 53
-20 130 -31 170 -47 169 -166 361 -292 472 -90 79 -4174 3205 -4224 3233 -58
33 -134 39 -201 15z"/>
<path d="M18187 25924 c-67 -21 -131 -86 -151 -155 -14 -48 -16 -802 -16
-7859 0 -5348 3 -7832 10 -7890 28 -225 130 -438 282 -587 63 -62 4216 -3250
4273 -3280 16 -9 59 -18 95 -21 53 -3 74 0 113 18 57 27 119 95 135 148 16 54
17 15652 1 15768 -31 222 -148 449 -308 596 -94 87 -4191 3221 -4250 3250 -61
32 -110 35 -184 12z"/>
<path d="M31190 15715 l0 -6525 2045 0 2045 0 0 2540 0 2540 1945 0 1945 0 0
-2540 0 -2540 2050 0 2050 0 0 6525 0 6525 -2050 0 -2050 0 0 -2350 0 -2350
-1945 0 -1945 0 0 2350 0 2350 -2045 0 -2045 0 0 -6525z"/>
<path d="M81420 22159 c-917 -58 -1747 -275 -2535 -664 -853 -420 -1554 -972
-2132 -1681 -778 -953 -1248 -2076 -1392 -3329 -37 -315 -45 -484 -45 -865 0
-451 20 -730 80 -1120 182 -1187 654 -2229 1433 -3165 162 -194 555 -587 746
-746 551 -458 1117 -794 1770 -1052 975 -385 2090 -536 3184 -431 782 74 1520
283 2192 619 1020 511 1857 1247 2464 2165 493 745 802 1505 972 2390 l38 195
3 873 3 872 -3531 0 -3530 0 0 -845 0 -845 2405 0 2405 0 -5 -27 c-3 -16 -17
-91 -31 -168 -165 -919 -543 -1677 -1123 -2255 -626 -623 -1374 -964 -2356
-1076 -192 -21 -696 -30 -921 -15 -1519 101 -2736 848 -3438 2111 -329 591
-520 1253 -588 2035 -18 217 -15 813 5 1033 85 893 331 1613 781 2285 552 823
1395 1406 2397 1658 581 146 1274 178 1899 88 722 -104 1393 -397 1894 -829
289 -248 561 -586 756 -937 l62 -113 1265 0 1264 0 -7 23 c-3 12 -33 85 -66
162 -307 719 -711 1327 -1228 1846 -327 327 -645 581 -1035 824 -863 538
-1791 850 -2855 960 -319 32 -886 44 -1200 24z"/>
<path d="M68157 22093 c-4 -3 -7 -568 -7 -1255 l0 -1248 -645 0 -645 0 2
-1707 3 -1708 643 -3 642 -2 0 -1343 c0 -1364 7 -1758 35 -2062 159 -1736 954
-2841 2384 -3315 256 -84 546 -151 841 -194 419 -60 550 -66 1623 -66 l947 0
0 1740 0 1740 -524 0 c-413 0 -550 3 -641 15 -288 38 -439 144 -517 362 -48
134 -48 144 -48 1680 l0 1443 848 2 847 3 3 1708 2 1707 -850 0 -850 0 0 1255
0 1255 -2043 0 c-1124 0 -2047 -3 -2050 -7z"/>
<path d="M103100 20610 l0 -1260 -600 0 -600 0 0 -860 0 -860 600 0 600 0 0
-2928 c0 -1933 4 -2974 10 -3063 75 -960 384 -1578 990 -1975 359 -235 772
-373 1340 -446 157 -20 213 -22 1208 -25 l1042 -4 0 875 0 874 -772 5 c-646 3
-789 7 -873 20 -370 60 -583 186 -699 415 -39 76 -83 214 -103 322 -17 89 -18
268 -20 3013 l-3 2917 1235 0 1235 0 0 860 0 860 -1235 0 -1235 0 0 1260 0
1260 -1060 0 -1060 0 0 -1260z"/>
<path d="M49665 19710 c-961 -56 -1831 -297 -2591 -720 -1266 -704 -2126
-1909 -2408 -3375 -133 -693 -148 -1513 -40 -2215 129 -836 412 -1559 858
-2190 458 -649 1049 -1158 1771 -1525 546 -278 1148 -465 1795 -559 361 -52
500 -61 1000 -61 370 0 502 4 645 18 788 77 1439 256 2080 572 852 420 1495
997 1989 1787 445 711 697 1530 766 2488 22 299 12 832 -20 1155 -121 1198
-600 2260 -1380 3059 -247 253 -469 437 -760 630 -231 154 -371 233 -625 357
-670 325 -1355 505 -2165 569 -176 14 -736 20 -915 10z m650 -3564 c255 -58
449 -169 635 -362 273 -283 416 -682 439 -1224 38 -918 -212 -1518 -759 -1817
-169 -92 -354 -135 -580 -136 -349 0 -619 103 -859 329 -325 305 -481 778
-481 1455 0 667 157 1129 491 1443 118 111 281 215 414 264 44 16 182 51 245
61 83 14 372 6 455 -13z"/>
<path d="M60865 19714 c-446 -17 -982 -92 -1355 -190 -792 -209 -1492 -609
-1946 -1111 -526 -583 -804 -1319 -804 -2130 0 -582 112 -1059 335 -1439 222
-376 650 -769 1105 -1012 383 -204 1107 -414 2200 -637 559 -114 966 -214
1225 -300 356 -118 505 -284 493 -549 -5 -118 -42 -202 -123 -281 -72 -70
-210 -140 -320 -161 -299 -56 -657 -7 -925 126 -266 133 -418 332 -499 649
l-27 106 -1962 3 c-1876 2 -1962 1 -1962 -16 0 -10 7 -73 15 -140 123 -991
645 -1869 1490 -2502 730 -548 1660 -898 2710 -1019 347 -41 459 -46 965 -46
444 1 516 3 705 23 756 82 1292 225 1842 492 1078 523 1719 1353 1844 2385 17
141 17 601 0 755 -44 399 -128 709 -267 990 -117 237 -229 391 -447 617 -323
334 -673 573 -1072 733 -429 171 -1098 355 -1870 514 -848 175 -1205 272
-1455 394 -116 57 -225 157 -265 243 -35 79 -50 191 -36 276 31 183 151 304
356 358 145 38 437 36 628 -4 409 -86 690 -349 804 -754 l27 -97 1818 0 1818
0 -4 23 c-3 12 -17 90 -32 172 -87 495 -262 991 -489 1390 -198 349 -397 609
-689 900 -321 320 -643 551 -1031 742 -529 259 -1129 413 -1860 478 -163 14
-751 26 -940 19z"/>
<path d="M94095 19510 c-1162 -59 -2248 -538 -3055 -1349 -920 -924 -1421
-2153 -1469 -3603 -51 -1528 355 -2814 1227 -3888 135 -166 484 -508 667 -654
563 -449 1233 -765 1905 -900 295 -59 505 -83 825 -92 656 -20 1309 88 1859
308 677 270 1342 751 1740 1257 l81 104 3 -752 2 -751 1060 0 1060 0 0 5080 0
5080 -1060 0 -1060 0 -2 -734 -3 -734 -95 115 c-154 187 -416 437 -620 594
-479 369 -1025 641 -1555 775 -457 116 -1012 169 -1510 144z m1042 -1845 c534
-53 1095 -284 1533 -631 114 -90 358 -336 451 -454 468 -590 702 -1235 750
-2060 36 -632 -61 -1247 -279 -1765 -260 -621 -701 -1145 -1237 -1470 -866
-525 -1933 -576 -2838 -135 -333 162 -587 347 -850 620 -487 505 -798 1169
-901 1925 -51 370 -51 865 0 1230 89 644 319 1187 704 1665 325 401 758 715
1245 898 453 171 908 227 1422 177z"/>
<path d="M113700 19509 c-1605 -68 -2979 -772 -3818 -1957 -536 -755 -836
-1618 -934 -2687 -18 -190 -18 -994 0 -1170 77 -780 234 -1368 521 -1960 285
-586 672 -1096 1149 -1516 613 -539 1366 -909 2202 -1083 345 -72 639 -104
1030 -113 1059 -22 1972 186 2738 626 512 295 1023 749 1389 1236 260 347 504
805 643 1210 15 44 31 88 35 98 7 16 -49 17 -1131 15 l-1139 -3 -23 -45 c-279
-527 -616 -868 -1083 -1098 -272 -133 -558 -211 -924 -253 -164 -19 -600 -16
-760 5 -489 63 -892 210 -1263 458 -565 378 -958 935 -1128 1598 -39 150 -79
372 -89 495 -4 44 -9 88 -11 97 -5 17 186 18 3878 20 l3883 3 12 85 c76 527
82 1244 13 1755 -144 1065 -560 1978 -1236 2707 -367 396 -800 713 -1329 973
-630 310 -1280 468 -2070 505 -230 11 -295 10 -555 -1z m566 -1784 c528 -56
950 -199 1346 -457 537 -351 895 -840 1042 -1424 45 -177 86 -470 86 -616 l0
-48 -2810 0 -2811 0 5 33 c49 295 87 460 153 657 217 647 621 1151 1203 1500
317 191 710 318 1110 359 145 14 518 12 676 -4z"/>
<path d="M11870 16435 c-58 -18 -115 -66 -143 -118 l-22 -42 0 -4515 0 -4515
24 -89 c49 -187 130 -334 256 -463 47 -48 760 -600 2150 -1664 1144 -876 2099
-1603 2122 -1616 119 -67 270 -22 336 101 l22 41 0 4515 0 4515 -28 100 c-51
186 -138 338 -266 465 -76 75 -4196 3237 -4265 3273 -47 25 -131 30 -186 12z"/>
</g>
</svg>
