<?xml version="1.0" encoding="UTF-8"?>
<!-- Generator: https://ezgif.com/webp-to-svg -->
<svg version="1.1" xmlns="http://www.w3.org/2000/svg" width="12500" height="3125">
<path d="M0 0 C135.3 0 270.6 0 410 0 C410 155.43 410 310.86 410 471 C538.04 471 666.08 471 798 471 C798 315.57 798 160.14 798 0 C933.63 0 1069.26 0 1209 0 C1209 431.31 1209 862.62 1209 1307 C1073.37 1307 937.74 1307 798 1307 C798 1139.03 798 971.06 798 798 C669.96 798 541.92 798 410 798 C410 965.97 410 1133.94 410 1307 C274.7 1307 139.4 1307 0 1307 C0 875.69 0 444.38 0 0 Z " fill="#FFFFFF" transform="translate(3118,900)"/>
<path d="M0 0 C2.07 0.01 4.14 0.01 6.21 0.01 C29.8 0.05 53.23 0.88 76.71 3.32 C77.4 3.39 78.1 3.46 78.81 3.53 C121.28 7.88 163.17 17.03 203.71 30.32 C204.66 30.63 205.61 30.94 206.59 31.25 C233.59 40.09 259.36 51.61 284.71 64.32 C285.68 64.8 286.65 65.28 287.65 65.78 C307.56 75.77 326.64 87.3 344.71 100.32 C345.49 100.88 346.26 101.43 347.06 102.01 C356.51 108.84 365.82 115.76 374.71 123.32 C375.79 124.23 376.88 125.13 377.96 126.04 C389.86 136.08 401.18 146.71 412.21 157.69 C412.86 158.33 413.51 158.98 414.17 159.64 C418.55 164.03 422.67 168.61 426.71 173.32 C427.66 174.4 428.61 175.48 429.56 176.56 C437.37 185.51 444.62 194.8 451.71 204.32 C452.25 205.03 452.79 205.75 453.34 206.49 C508.8 280.63 539.28 370.2 551.71 490.32 C551.77 491.15 551.83 491.97 551.89 492.83 C557.49 574.91 547.54 660.6 496.8 789.22 C495.55 791.63 494.34 794.05 493.12 796.48 C482.34 817.78 469.9 838.11 455.71 857.32 C455.22 857.99 454.72 858.67 454.21 859.37 C448.2 867.61 441.96 875.58 435.29 883.3 C432.87 886.13 430.54 889.02 428.21 891.94 C424.2 896.88 419.81 901.32 415.26 905.77 C413.15 907.88 411.19 910.02 409.28 912.32 C405.05 917.26 400.17 921.5 395.35 925.84 C393.69 927.33 392.06 928.85 390.44 930.37 C383.74 936.64 376.91 942.63 369.71 948.32 C368.76 949.08 368.76 949.08 367.79 949.86 C356.46 958.9 344.82 967.34 332.71 975.32 C331.96 975.81 331.21 976.31 330.43 976.82 C256.04 1025.6 170.9 1052.51 -137.2 1053.73 C-215.33 1037.1 -290.83 1005.22 -354.29 956.32 C-354.83 955.91 -355.36 955.49 -355.92 955.07 C-373.95 941.24 -390.69 925.97 -406.79 909.94 C-407.43 909.3 -408.08 908.66 -408.75 908 C-413.13 903.6 -417.24 899.02 -421.29 894.32 C-422.24 893.24 -423.19 892.15 -424.14 891.07 C-431.37 882.78 -438.15 874.19 -444.74 865.38 C-446.19 863.45 -447.64 861.53 -449.1 859.61 C-509.65 778.98 -540.06 679.2 -546.29 579.32 C-546.33 578.65 -546.37 577.97 -546.42 577.28 C-547.3 562.92 -547.49 548.58 -547.47 534.19 C-547.47 533.06 -547.47 531.92 -547.47 530.75 C-547.38 466.28 -538.6 402.61 -518.29 341.32 C-517.99 340.4 -517.69 339.49 -517.39 338.55 C-497.7 278.28 -464.31 221.68 -422.29 174.32 C-421.45 173.37 -420.61 172.42 -419.75 171.44 C-413.18 164.17 -406.3 157.2 -399.39 150.24 C-398.3 149.14 -397.21 148.04 -396.12 146.94 C-389.9 140.65 -383.6 134.72 -376.66 129.22 C-374.41 127.42 -372.28 125.53 -370.16 123.57 C-298.54 59.34 -200.74 24.13 0 0 Z M-51.29 367.32 C-52.14 367.75 -53 368.18 -53.88 368.62 C-64.9 374.37 -74.29 381.8 -83.29 390.32 C-84.11 391.08 -84.93 391.84 -85.78 392.62 C-109.81 415.52 -120.87 447.54 -127.29 479.32 C-127.59 480.78 -127.59 480.78 -127.91 482.28 C-138.59 538.75 -133.41 609.24 -101.15 658.04 C-82.84 684.61 -55.49 703.37 -23.84 709.75 C9.31 715.78 43.69 710.6 71.71 691.32 C78.48 686.49 84.63 680.98 90.71 675.32 C91.39 674.7 92.07 674.09 92.77 673.46 C115.87 651.71 127.26 618.68 132.96 588.32 C133.11 587.53 133.26 586.73 133.42 585.92 C136.44 568.64 137.09 551.19 137.03 533.69 C137.02 532.69 137.02 531.69 137.02 530.66 C136.97 514.72 136.41 499.07 133.71 483.32 C133.55 482.35 133.38 481.37 133.21 480.37 C126.11 440.73 108.88 402.05 75.09 378.17 C38.36 352.89 -10.78 346.73 -51.29 367.32 Z " fill="#FFFFFF" transform="translate(5002.287189483643,1152.682144165039)"/>
<path d="M0 0 C6.98 3.56 12.93 8.73 18.96 13.68 C23.53 17.41 28.25 20.93 32.98 24.45 C40.25 29.87 47.44 35.36 54.58 40.94 C61.76 46.55 69 52.08 76.25 57.61 C79.06 59.76 81.86 61.92 84.67 64.08 C92.49 70.1 100.33 76.09 108.17 82.08 C117.06 88.87 125.94 95.67 134.81 102.5 C140.85 107.15 146.92 111.77 152.98 116.4 C157.25 119.67 161.52 122.93 165.78 126.2 C169.37 128.94 172.97 131.69 176.56 134.43 C183.98 140.11 191.4 145.79 198.81 151.5 C205.58 156.71 212.38 161.89 219.17 167.08 C228.06 173.87 236.94 180.67 245.81 187.5 C252.58 192.71 259.38 197.89 266.17 203.08 C275.06 209.87 283.94 216.67 292.81 223.5 C298.85 228.15 304.92 232.77 310.98 237.4 C315.25 240.67 319.52 243.93 323.78 247.2 C327.37 249.94 330.97 252.69 334.56 255.43 C341.98 261.11 349.4 266.79 356.81 272.5 C363.58 277.71 370.38 282.89 377.17 288.08 C395.67 302.22 395.67 302.22 404.05 308.68 C406.19 310.33 408.35 311.97 410.51 313.6 C434.51 331.75 452.41 353.84 456.82 384.4 C457.9 392.75 458.31 401.01 458.29 409.43 C458.3 410.53 458.3 411.62 458.3 412.75 C458.3 416.42 458.3 420.09 458.3 423.75 C458.3 426.42 458.3 429.09 458.3 431.76 C458.31 437.58 458.31 443.4 458.3 449.22 C458.3 457.93 458.3 466.64 458.31 475.35 C458.31 490.2 458.32 505.05 458.31 519.9 C458.31 534.94 458.31 549.99 458.32 565.04 C458.32 566.46 458.32 566.46 458.32 567.92 C458.32 571.79 458.32 575.66 458.32 579.53 C458.33 619.91 458.33 660.29 458.34 700.67 C458.34 705.01 458.34 709.36 458.34 713.7 C458.34 714.78 458.34 715.86 458.34 716.97 C458.34 740.87 458.34 764.76 458.34 788.66 C458.34 798.49 458.34 808.33 458.34 818.17 C458.34 819.26 458.34 820.34 458.34 821.46 C458.35 883.75 458.35 946.03 458.35 1008.32 C458.35 1010.65 458.35 1012.98 458.35 1015.31 C458.35 1025.84 458.35 1036.36 458.35 1046.89 C458.35 1051.58 458.35 1056.27 458.35 1060.97 C458.35 1063.32 458.35 1065.67 458.35 1068.01 C458.35 1142.32 458.36 1216.62 458.37 1290.93 C458.38 1309.65 458.38 1328.38 458.38 1347.1 C458.38 1348.26 458.38 1349.41 458.38 1350.6 C458.39 1386.12 458.39 1421.64 458.4 1457.17 C458.4 1458.28 458.4 1459.4 458.4 1460.55 C458.4 1485.02 458.4 1509.49 458.4 1533.96 C458.4 1542.72 458.4 1551.48 458.4 1560.23 C458.4 1562.41 458.4 1564.59 458.4 1566.77 C458.4 1601.5 458.4 1636.24 458.41 1670.97 C458.42 1705.95 458.42 1740.92 458.42 1775.89 C458.41 1780.72 458.41 1785.55 458.41 1790.38 C458.41 1791.33 458.41 1792.27 458.41 1793.25 C458.41 1808.26 458.41 1823.27 458.42 1838.28 C458.43 1853.03 458.43 1867.77 458.42 1882.52 C458.42 1891.17 458.42 1899.82 458.43 1908.48 C458.43 1914.22 458.43 1919.96 458.42 1925.7 C458.42 1928.96 458.42 1932.22 458.42 1935.48 C458.43 1938.98 458.43 1942.48 458.42 1945.98 C458.42 1947.48 458.42 1947.48 458.43 1949.02 C458.37 1960.7 456.17 1968.07 447.86 1976.39 C441.3 1980.51 434.43 1982.21 426.78 1980.56 C418.43 1978.08 412.48 1972.98 405.91 1967.51 C403.27 1965.34 400.57 1963.28 397.86 1961.2 C396.78 1960.38 395.71 1959.55 394.63 1958.73 C393.48 1957.85 392.32 1956.96 391.17 1956.08 C390.52 1955.59 389.88 1955.09 389.22 1954.59 C384.93 1951.31 380.65 1948.03 376.36 1944.75 C372.09 1941.49 367.82 1938.22 363.55 1934.96 C359.96 1932.21 356.37 1929.47 352.78 1926.72 C345.35 1921.05 337.93 1915.36 330.53 1909.66 C323.75 1904.45 316.96 1899.27 310.17 1894.08 C301.28 1887.28 292.39 1880.49 283.53 1873.66 C276.75 1868.45 269.96 1863.27 263.17 1858.08 C254.28 1851.28 245.39 1844.49 236.53 1837.66 C230.48 1833.01 224.42 1828.38 218.36 1823.75 C214.09 1820.49 209.82 1817.22 205.55 1813.96 C201.96 1811.21 198.37 1808.47 194.78 1805.72 C187.35 1800.05 179.93 1794.36 172.53 1788.66 C165.75 1783.45 158.96 1778.27 152.17 1773.08 C143.28 1766.28 134.39 1759.49 125.53 1752.66 C119.48 1748.01 113.42 1743.38 107.36 1738.75 C103.09 1735.49 98.82 1732.22 94.55 1728.96 C90.96 1726.21 87.37 1723.47 83.78 1720.72 C76.35 1715.05 68.93 1709.36 61.53 1703.66 C54.75 1698.45 47.96 1693.27 41.17 1688.08 C21.76 1673.25 21.76 1673.25 14.29 1667.47 C12.16 1665.84 10.02 1664.22 7.86 1662.62 C-15.44 1645.28 -28.37 1623.81 -34.37 1595.55 C-35.01 1590.77 -34.97 1586.06 -34.96 1581.25 C-34.96 1580.15 -34.97 1579.05 -34.97 1577.91 C-34.97 1574.2 -34.97 1570.48 -34.97 1566.77 C-34.97 1564.08 -34.97 1561.39 -34.98 1558.7 C-34.98 1552.82 -34.99 1546.94 -34.99 1541.06 C-34.99 1532.25 -34.99 1523.45 -35 1514.64 C-35.01 1499.64 -35.01 1484.64 -35.02 1469.63 C-35.02 1454.42 -35.03 1439.21 -35.04 1424 C-35.04 1423.04 -35.04 1422.08 -35.04 1421.09 C-35.04 1417.18 -35.04 1413.27 -35.04 1409.36 C-35.07 1361.96 -35.09 1314.55 -35.1 1267.15 C-35.1 1251.78 -35.11 1236.41 -35.11 1221.04 C-35.14 1140.55 -35.16 1060.06 -35.17 979.57 C-35.17 973.68 -35.17 967.79 -35.18 961.89 C-35.18 960.72 -35.18 959.56 -35.18 958.35 C-35.18 946.51 -35.18 934.67 -35.18 922.82 C-35.18 920.45 -35.18 918.07 -35.18 915.7 C-35.19 839.42 -35.22 763.14 -35.27 686.86 C-35.3 632.05 -35.32 577.24 -35.33 522.44 C-35.33 520.75 -35.33 520.75 -35.33 519.02 C-35.34 494.29 -35.34 469.56 -35.34 444.83 C-35.34 434.88 -35.34 424.93 -35.35 414.98 C-35.35 413.89 -35.35 412.8 -35.35 411.68 C-35.35 376.58 -35.37 341.47 -35.39 306.37 C-35.42 271.02 -35.43 235.67 -35.42 200.33 C-35.42 195.44 -35.42 190.56 -35.42 185.68 C-35.42 184.72 -35.42 183.77 -35.42 182.78 C-35.41 167.61 -35.42 152.44 -35.45 137.27 C-35.46 122.37 -35.47 107.46 -35.45 92.56 C-35.44 83.81 -35.44 75.06 -35.47 66.32 C-35.48 60.52 -35.48 54.71 -35.46 48.91 C-35.45 45.61 -35.45 42.32 -35.47 39.03 C-35.49 35.49 -35.48 31.95 -35.45 28.41 C-35.47 27.4 -35.48 26.39 -35.49 25.34 C-35.4 18.35 -33.82 12.88 -29.83 7.08 C-21.54 -0.81 -11.15 -3.63 0 0 Z " fill="#FFFFFF" transform="translate(1836.83203125,531.921875)"/>
<path d="M0 0 C5.78 3.32 10.95 7.52 16.15 11.67 C19.49 14.3 22.87 16.86 26.25 19.44 C27.7 20.54 29.15 21.65 30.59 22.76 C32.06 23.88 33.53 25 35 26.12 C43.89 32.92 52.78 39.72 61.64 46.54 C68.41 51.75 75.21 56.94 82 62.12 C90.89 68.92 99.78 75.72 108.64 82.54 C114.69 87.19 120.75 91.82 126.81 96.45 C131.08 99.71 135.35 102.98 139.62 106.24 C143.21 108.99 146.8 111.74 150.39 114.48 C157.82 120.16 165.23 125.84 172.64 131.54 C179.41 136.75 186.21 141.94 193 147.12 C201.89 153.92 210.78 160.72 219.64 167.54 C226.41 172.75 233.21 177.94 240 183.12 C248.89 189.92 257.78 196.72 266.64 203.54 C272.69 208.19 278.75 212.82 284.81 217.45 C289.08 220.71 293.35 223.98 297.62 227.24 C301.21 229.99 304.8 232.74 308.39 235.48 C315.82 241.16 323.23 246.84 330.64 252.54 C337.41 257.75 344.21 262.94 351 268.12 C359.89 274.92 368.78 281.72 377.64 288.54 C381.5 291.52 385.38 294.48 389.25 297.44 C390.32 298.26 390.32 298.26 391.42 299.1 C395.06 301.88 398.71 304.66 402.37 307.42 C430.5 328.65 450.85 350.86 456 387.12 C456.26 390.94 456.27 394.75 456.25 398.57 C456.26 399.68 456.26 400.78 456.26 401.92 C456.27 405.63 456.27 409.33 456.26 413.03 C456.26 415.73 456.27 418.42 456.27 421.11 C456.28 426.99 456.28 432.86 456.28 438.74 C456.27 447.53 456.28 456.33 456.29 465.12 C456.3 480.11 456.31 495.1 456.31 510.09 C456.31 525.28 456.31 540.47 456.32 555.66 C456.32 556.62 456.32 557.58 456.32 558.57 C456.32 562.48 456.32 566.38 456.33 570.29 C456.35 611.06 456.36 651.82 456.37 692.58 C456.37 696.97 456.37 701.36 456.37 705.75 C456.37 706.84 456.37 707.93 456.37 709.05 C456.37 733.17 456.38 757.29 456.38 781.42 C456.39 791.35 456.39 801.28 456.39 811.21 C456.39 812.31 456.39 813.41 456.39 814.54 C456.41 877.42 456.42 940.3 456.42 1003.18 C456.42 1005.54 456.42 1007.89 456.42 1010.24 C456.42 1020.87 456.42 1031.49 456.42 1042.12 C456.43 1046.86 456.43 1051.6 456.43 1056.33 C456.43 1058.71 456.43 1061.08 456.43 1063.45 C456.43 1138.46 456.45 1213.48 456.49 1288.49 C456.51 1344.43 456.54 1400.37 456.55 1456.32 C456.55 1458 456.55 1458 456.55 1459.73 C456.55 1484.43 456.55 1509.14 456.55 1533.85 C456.55 1542.69 456.55 1551.53 456.55 1560.37 C456.55 1562.57 456.55 1564.77 456.55 1566.97 C456.55 1602.03 456.57 1637.1 456.59 1672.17 C456.62 1707.48 456.62 1742.78 456.61 1778.09 C456.61 1782.97 456.6 1787.84 456.6 1792.72 C456.6 1793.68 456.6 1794.63 456.6 1795.62 C456.6 1810.77 456.61 1825.92 456.63 1841.07 C456.64 1855.96 456.64 1870.85 456.63 1885.74 C456.62 1894.47 456.62 1903.21 456.64 1911.94 C456.66 1917.74 456.65 1923.54 456.63 1929.33 C456.62 1932.62 456.62 1935.91 456.64 1939.2 C456.66 1942.73 456.64 1946.27 456.62 1949.8 C456.64 1950.81 456.65 1951.83 456.66 1952.87 C456.56 1960.62 454.5 1967.13 449.32 1973.04 C444.15 1978.05 438.08 1979.78 431.06 1980.56 C422.33 1980.17 415.14 1975.19 408.62 1969.81 C407.06 1968.56 405.5 1967.31 403.93 1966.05 C403.12 1965.41 402.32 1964.76 401.49 1964.1 C397.31 1960.79 393.03 1957.62 388.75 1954.44 C382.49 1949.76 376.28 1945.03 370.15 1940.18 C363.55 1934.97 356.86 1929.88 350.17 1924.78 C346.61 1922.07 343.06 1919.35 339.5 1916.62 C335.2 1913.34 330.91 1910.05 326.61 1906.77 C319.18 1901.09 311.77 1895.41 304.36 1889.71 C297.59 1884.5 290.79 1879.31 284 1874.12 C275.11 1867.33 266.22 1860.53 257.36 1853.71 C250.59 1848.5 243.79 1843.31 237 1838.12 C228.11 1831.33 219.22 1824.53 210.36 1817.71 C204.31 1813.06 198.25 1808.43 192.19 1803.8 C187.92 1800.54 183.65 1797.27 179.38 1794.01 C175.79 1791.26 172.2 1788.51 168.61 1785.77 C161.18 1780.09 153.77 1774.41 146.36 1768.71 C139.59 1763.5 132.79 1758.31 126 1753.12 C117.11 1746.33 108.22 1739.53 99.36 1732.71 C92.59 1727.5 85.79 1722.31 79 1717.12 C70.11 1710.33 61.22 1703.53 52.36 1696.71 C46.31 1692.06 40.25 1687.43 34.19 1682.8 C32.04 1681.15 29.89 1679.51 27.73 1677.86 C26.69 1677.06 26.69 1677.06 25.61 1676.24 C24.2 1675.16 22.8 1674.08 21.39 1673 C17.8 1670.25 14.2 1667.53 10.57 1664.84 C-13.62 1646.84 -30.77 1624.89 -35.59 1594.37 C-37.34 1580.8 -37.28 1567.27 -37.25 1553.61 C-37.25 1550.93 -37.26 1548.26 -37.26 1545.58 C-37.27 1539.77 -37.27 1533.96 -37.26 1528.15 C-37.25 1519.45 -37.26 1510.75 -37.26 1502.05 C-37.27 1487.22 -37.27 1472.39 -37.27 1457.56 C-37.26 1442.54 -37.26 1427.52 -37.26 1412.5 C-37.26 1411.55 -37.26 1410.6 -37.26 1409.62 C-37.26 1405.75 -37.27 1401.88 -37.27 1398.01 C-37.28 1362.01 -37.28 1326 -37.27 1289.99 C-37.27 1288.93 -37.27 1287.86 -37.27 1286.76 C-37.27 1285.69 -37.27 1284.62 -37.27 1283.52 C-37.27 1250.99 -37.27 1218.45 -37.27 1185.91 C-37.27 1183.73 -37.27 1181.55 -37.27 1179.37 C-37.27 1170.61 -37.27 1161.86 -37.27 1153.1 C-37.27 1128.62 -37.27 1104.15 -37.27 1079.67 C-37.27 1078.55 -37.27 1077.44 -37.27 1076.29 C-37.27 1040.78 -37.27 1005.26 -37.27 969.75 C-37.27 968.6 -37.27 967.45 -37.27 966.26 C-37.27 947.56 -37.26 928.85 -37.26 910.15 C-37.25 835.95 -37.25 761.74 -37.26 687.54 C-37.26 668.84 -37.27 650.13 -37.27 631.43 C-37.27 630.28 -37.27 629.12 -37.27 627.94 C-37.27 592.45 -37.27 556.97 -37.27 521.49 C-37.27 520.37 -37.27 519.26 -37.27 518.11 C-37.27 493.67 -37.27 469.22 -37.27 444.78 C-37.27 436.03 -37.27 427.28 -37.27 418.54 C-37.27 416.36 -37.27 414.19 -37.27 412.01 C-37.27 379.47 -37.27 346.94 -37.27 314.4 C-37.27 313.33 -37.27 312.27 -37.27 311.17 C-37.27 310.1 -37.27 309.04 -37.27 307.94 C-37.28 272.05 -37.28 236.15 -37.27 200.26 C-37.26 196.4 -37.26 192.55 -37.26 188.7 C-37.26 187.75 -37.26 186.81 -37.26 185.84 C-37.26 170.85 -37.26 155.86 -37.27 140.88 C-37.27 126.15 -37.27 111.43 -37.26 96.7 C-37.25 88.06 -37.26 79.42 -37.26 70.78 C-37.27 65.05 -37.27 59.32 -37.26 53.58 C-37.25 50.33 -37.25 47.08 -37.26 43.82 C-37.27 40.33 -37.26 36.83 -37.25 33.34 C-37.26 32.34 -37.26 31.34 -37.27 30.31 C-37.22 21.31 -36.69 13.05 -30.79 5.88 C-22.61 -2.16 -10.66 -4.97 0 0 Z " fill="#FFFFFF" transform="translate(574,532.875)"/>
<path d="M0 0 C1.58 -0 3.17 -0.01 4.75 -0.01 C8.06 -0.02 11.36 -0.02 14.67 -0.02 C17.99 -0.02 21.3 -0.02 24.62 -0.04 C52.33 -0.15 79.9 0.61 107.44 3.92 C108.14 4 108.85 4.08 109.57 4.17 C195.31 14.36 278.16 39.56 439.59 138.81 C441.15 140.08 442.71 141.34 444.28 142.6 C449.65 146.94 454.84 151.42 459.94 156.07 C461.92 157.86 463.92 159.62 465.94 161.36 C477.98 171.85 489.96 182.84 500.35 194.98 C502.26 197.18 504.22 199.31 506.2 201.44 C510.93 206.54 515.46 211.73 519.82 217.14 C521.62 219.38 523.44 221.61 525.28 223.82 C533.12 233.27 540.35 243.01 547.25 253.17 C548.28 254.67 548.28 254.67 549.32 256.2 C559.53 271.2 569.34 286.35 578.25 302.17 C579.04 303.56 579.04 303.56 579.84 304.98 C591.9 326.49 602.71 348.58 612.13 371.36 C612.39 371.99 612.66 372.63 612.93 373.28 C617.25 383.77 617.25 383.77 617.25 386.17 C585.13 386.72 553.02 387.14 520.89 387.39 C517.1 387.42 513.3 387.45 509.5 387.49 C508.75 387.49 507.99 387.5 507.21 387.51 C494.99 387.61 482.77 387.8 470.56 388.02 C458.01 388.24 445.46 388.38 432.91 388.43 C425.17 388.46 417.44 388.56 409.7 388.76 C403.75 388.9 397.81 388.91 391.86 388.88 C389.43 388.89 387 388.94 384.58 389.03 C369.62 389.57 369.62 389.57 363.25 386.17 C357.34 380.21 353.91 372.64 350.57 365.05 C348.77 361.11 346.59 357.49 344.25 353.86 C343.84 353.2 343.43 352.55 343 351.87 C332.85 335.85 320.85 320.95 307.95 307.08 C305.48 304.42 303.08 301.71 300.69 298.98 C296.2 293.98 291.33 289.56 286.25 285.17 C285.19 284.23 284.13 283.3 283.07 282.36 C269.34 270.32 254.75 259.82 239.25 250.17 C238.61 249.76 237.97 249.36 237.3 248.95 C195.48 222.82 147.59 207.53 99.25 199.17 C98.4 199.01 97.55 198.86 96.68 198.7 C7.14 182.62 -90.05 196.08 -172.75 233.17 C-174.26 233.83 -175.77 234.49 -177.29 235.14 C-190 240.79 -201.85 248.01 -213.75 255.17 C-214.91 255.86 -214.91 255.86 -216.09 256.57 C-230.7 265.33 -244.66 275.25 -257.75 286.17 C-259.26 287.43 -259.26 287.43 -260.81 288.71 C-277.46 302.6 -294.32 317.42 -307.7 334.56 C-309.6 336.98 -311.59 339.31 -313.61 341.64 C-375.02 412.43 -405.39 506.74 -415.47 696.39 C-408.88 787.44 -382.38 873.94 -298.52 987.05 C-296.75 989.17 -296.75 989.17 -295.75 991.32 C-294.46 993.69 -293.15 994.05 -290.75 995.17 C-289.32 996.65 -289.32 996.65 -288 998.36 C-285.29 1001.64 -282.38 1004.34 -279.14 1007.09 C-276.73 1009.19 -274.39 1011.35 -272.06 1013.53 C-266.16 1019.04 -260.18 1024.29 -253.75 1029.17 C-252.75 1029.92 -252.75 1029.92 -251.74 1030.69 C-234.81 1043.48 -217.28 1054.85 -198.75 1065.17 C-197.94 1065.62 -197.14 1066.06 -196.31 1066.53 C-147.09 1093.75 -91.6 1109.3 -35.87 1115.48 C-34.78 1115.6 -34.78 1115.6 -33.66 1115.73 C-14.71 1117.8 4.14 1118.38 23.19 1118.36 C24.27 1118.35 25.36 1118.35 26.47 1118.35 C42.82 1118.33 58.99 1118.01 75.25 1116.17 C76.47 1116.03 77.69 1115.9 78.94 1115.76 C157.5 1106.89 236.9 1079.99 295.8 1025.31 C297.25 1024.17 297.25 1024.17 299.25 1024.17 C299.58 1023.18 299.91 1022.19 300.25 1021.17 C301.8 1019.63 301.8 1019.63 303.79 1018 C308.3 1014.17 312.51 1010.1 316.69 1005.92 C317.44 1005.17 318.18 1004.43 318.95 1003.66 C323.74 998.82 328.18 993.9 332.37 988.54 C334.14 986.31 336 984.25 337.94 982.17 C391.74 922.07 415.02 841.43 429.25 764.17 C270.52 764.17 111.79 764.17 -51.75 764.17 C-51.75 708.4 -51.75 652.63 -51.75 595.17 C181.89 595.17 415.53 595.17 656.25 595.17 C656.25 727.25 655.97 828.26 603.33 941.84 C602.61 943.39 601.9 944.95 601.19 946.51 C588.84 973.55 573.9 999.63 557.44 1024.38 C556.34 1026.04 555.24 1027.71 554.15 1029.38 C535.15 1058.24 513.35 1085.43 489.65 1110.55 C486.98 1113.38 484.37 1116.24 481.77 1119.13 C477.85 1123.47 473.89 1127.51 469.41 1131.26 C466.57 1133.77 463.92 1136.47 461.25 1139.17 C456.75 1143.72 452.14 1148.03 447.25 1152.17 C446.22 1153.07 445.18 1153.97 444.14 1154.87 C436.64 1161.39 428.99 1167.66 421.12 1173.73 C419.17 1175.23 417.24 1176.74 415.3 1178.25 C380.12 1205.57 342 1228.22 302.25 1248.17 C301.39 1248.6 300.53 1249.04 299.65 1249.49 C227.28 1285.84 145.76 1304.28 65.25 1309.17 C64.6 1309.21 63.96 1309.25 63.29 1309.3 C49.11 1310.21 34.96 1310.37 20.75 1310.36 C19.59 1310.35 18.43 1310.35 17.23 1310.35 C-63.56 1310.24 -143.25 1296.55 -291.93 1236.14 C-294.49 1234.77 -297.11 1233.49 -299.73 1232.22 C-322.57 1221.07 -344.02 1206.82 -364.75 1192.17 C-365.46 1191.66 -366.18 1191.16 -366.92 1190.64 C-377.27 1183.35 -387.24 1175.71 -396.99 1167.62 C-399.52 1165.53 -402.07 1163.48 -404.62 1161.42 C-409.01 1157.83 -413.23 1154.09 -417.42 1150.28 C-419.47 1148.42 -421.53 1146.6 -423.62 1144.79 C-425 1143.59 -426.37 1142.38 -427.75 1141.17 C-428.53 1140.47 -429.32 1139.78 -430.14 1139.06 C-437.33 1132.6 -444.21 1125.81 -451.06 1118.98 C-451.53 1118.51 -452.01 1118.03 -452.5 1117.55 C-458.14 1111.93 -463.57 1106.22 -468.75 1100.17 C-470.2 1098.56 -471.66 1096.96 -473.12 1095.36 C-476.97 1091.09 -480.64 1086.72 -484.25 1082.25 C-486.06 1080.02 -487.88 1077.8 -489.71 1075.58 C-536.21 1019.24 -572.62 954.05 -596.75 885.17 C-597.16 883.98 -597.58 882.79 -598.02 881.56 C-616.12 829.72 -626.47 775.9 -631.55 721.29 C-631.73 719.34 -631.92 717.39 -632.11 715.44 C-635.96 674.46 -635.67 631.12 -631.75 590.17 C-631.62 588.76 -631.49 587.36 -631.36 585.95 C-624.27 510.6 -605.9 436.8 -573.75 368.17 C-573.33 367.27 -572.91 366.37 -572.49 365.45 C-565.8 351.04 -558.6 336.98 -550.75 323.17 C-550.3 322.39 -549.86 321.6 -549.4 320.8 C-535.6 296.63 -519.71 273.21 -502.75 251.17 C-502.26 250.53 -501.78 249.9 -501.28 249.25 C-495.13 241.24 -488.72 233.47 -482.15 225.81 C-480.74 224.16 -479.34 222.5 -477.95 220.84 C-466.69 207.47 -454.58 194.92 -442.25 182.54 C-441.42 181.71 -440.6 180.88 -439.75 180.03 C-435.47 175.76 -431.11 171.64 -426.52 167.7 C-424.11 165.62 -421.77 163.46 -419.43 161.29 C-414.03 156.37 -408.44 151.74 -402.75 147.17 C-401.63 146.26 -400.51 145.34 -399.39 144.43 C-375.6 125.1 -350.18 107.69 -323.75 92.17 C-322.58 91.48 -322.58 91.48 -321.39 90.77 C-283.93 68.73 -244.78 50.47 -203.73 36.21 C-201.8 35.53 -199.87 34.85 -197.94 34.17 C-144.68 15.17 -88 5.35 -31.75 1.17 C-30.62 1.08 -29.5 0.99 -28.34 0.9 C-18.88 0.21 -9.48 0 0 0 Z " fill="#FFFFFF" transform="translate(8164.74609375,907.83203125)"/>
<path d="M0 0 C0.71 0.07 1.42 0.13 2.15 0.2 C23.28 2.16 44.14 5.02 65 9 C65.99 9.18 66.97 9.36 67.99 9.55 C109 17.11 148.68 30.47 186 49 C186.91 49.45 187.82 49.9 188.76 50.37 C220.55 66.3 248.81 87.08 275 111 C275.99 111.9 276.98 112.79 277.97 113.69 C286.11 121.07 294.05 128.57 301.2 136.93 C303.17 139.2 305.21 141.41 307.25 143.62 C341.98 182.18 367.77 229.32 385 278 C385.31 278.86 385.62 279.72 385.94 280.61 C393.97 303.13 399.7 326.13 404 349.62 C404.15 350.47 404.31 351.31 404.47 352.17 C404.9 354.56 405.33 356.96 405.75 359.35 C405.88 360.07 406.01 360.78 406.14 361.52 C406.7 364.76 407 367.7 407 371 C286.88 371 166.76 371 43 371 C40 362 40 362 38.93 358.44 C30.7 331.62 14.08 310.12 -10.76 296.78 C-19.51 292.27 -28.43 289.23 -38 287 C-39.02 286.75 -39.02 286.75 -40.07 286.5 C-66.34 280.5 -98.56 280.69 -122 295 C-125.75 297.67 -128.17 300.3 -130.62 304.19 C-131.48 305.51 -131.48 305.51 -132.35 306.86 C-136.15 314.11 -137.54 320.72 -137.44 328.88 C-137.43 330.19 -137.43 330.19 -137.41 331.53 C-137.09 343.77 -132.55 353.43 -123.89 362.12 C-99.76 382.92 -61.7 389.62 -31.57 396.75 C-30.22 397.08 -30.22 397.08 -28.84 397.4 C-11.09 401.62 6.75 405.36 24.64 409 C75.19 419.27 125.82 430.26 175 446 C175.72 446.23 176.44 446.46 177.18 446.69 C210.07 457.17 242.6 468.59 272 487 C272.63 487.39 273.26 487.79 273.9 488.19 C287.75 496.93 300.94 506.94 312.93 518.08 C314.81 519.82 316.73 521.48 318.69 523.12 C328.09 531.32 337.04 540.41 345 550 C345.76 550.89 346.53 551.77 347.32 552.69 C397.54 611.57 410.16 692.81 404.68 767.95 C403.95 776.38 402.63 784.7 401 793 C400.8 794.02 400.6 795.03 400.4 796.08 C399.13 802.44 397.64 808.73 396 815 C395.82 815.72 395.64 816.44 395.45 817.18 C390.51 836.52 382.6 855.51 373 873 C372.39 874.12 372.39 874.12 371.76 875.25 C359.71 897 345.33 916.37 328.3 934.48 C325.98 936.96 325.98 936.96 323.93 939.62 C322.14 941.82 320.36 943.56 318.19 945.38 C315.54 947.63 313.04 949.93 310.62 952.44 C306.41 956.71 301.72 960.31 297 964 C295.98 964.82 294.96 965.65 293.91 966.5 C266.25 988.81 234.72 1007.22 202 1021 C200.63 1021.58 200.63 1021.58 199.23 1022.18 C153.15 1041.61 105.06 1053.44 55.47 1059.57 C53.23 1059.85 51 1060.13 48.77 1060.43 C-35.38 1071.47 -124.34 1065.73 -207 1047 C-208.1 1046.75 -209.19 1046.51 -210.32 1046.25 C-278.09 1030.7 -345.42 1002.15 -401 960 C-401.61 959.54 -402.21 959.09 -402.84 958.62 C-406.59 955.79 -410.31 952.91 -414 950 C-414.92 949.28 -415.84 948.55 -416.79 947.8 C-423.11 942.72 -429.08 937.31 -435 931.78 C-437.33 929.61 -439.7 927.5 -442.12 925.44 C-449.23 919.28 -455.91 912.49 -462.01 905.33 C-463.62 903.44 -465.25 901.59 -466.89 899.73 C-512.95 847.67 -541.89 783.05 -552.38 714.5 C-552.54 713.41 -552.71 712.32 -552.88 711.19 C-553.03 710.15 -553.18 709.11 -553.34 708.03 C-553.47 707.13 -553.59 706.23 -553.73 705.3 C-554.12 700.55 -554 695.77 -554 691 C-424.31 691 -294.62 691 -161 691 C-159.68 695.95 -158.36 700.9 -157 706 C-152.53 721.67 -146.02 734.88 -135 747 C-134.39 747.71 -133.78 748.41 -133.14 749.14 C-112.75 771.27 -78.51 779.43 -49.62 780.81 C-26.92 781.59 -4.04 779.16 14.12 764.12 C22.64 755.8 27.04 745.45 27.38 733.62 C26.99 719.85 22.11 707.57 12 698 C1.67 689.7 -11.35 684.41 -23.88 680.44 C-24.52 680.23 -25.16 680.03 -25.82 679.82 C-67.35 666.75 -110.15 658.33 -152.74 649.56 C-183.31 643.27 -213.8 636.91 -244 629 C-245.34 628.65 -245.34 628.65 -246.72 628.29 C-324.36 607.94 -398.49 581.05 -452 518 C-453.16 516.66 -453.16 516.66 -454.34 515.29 C-500.98 460.51 -513.54 385.06 -508 315 C-502.15 245.69 -475.44 179.19 -427.77 128.02 C-425.67 125.76 -423.65 123.44 -421.64 121.09 C-418.11 117.05 -414.36 113.34 -410.44 109.69 C-409.4 108.72 -409.4 108.72 -408.34 107.73 C-402.36 102.21 -396.13 97.15 -389.64 92.25 C-388.06 91.05 -386.5 89.8 -384.94 88.56 C-364.52 72.35 -341.5 59.19 -318 48 C-317.08 47.56 -316.16 47.11 -315.22 46.66 C-235.41 8.26 -147.55 -2.44 0 0 Z " fill="#FFFFFF" transform="translate(6184,1155)"/>
<path d="M0 0 C135.3 0 270.6 0 410 0 C410 82.83 410 165.66 410 251 C466.1 251 522.2 251 580 251 C580 363.86 580 476.72 580 593 C523.9 593 467.8 593 410 593 C410.12 643.62 410.12 643.62 410.26 694.24 C410.28 701.07 410.3 707.91 410.32 714.74 C410.32 715.6 410.32 716.45 410.32 717.34 C410.36 731.14 410.4 744.94 410.43 758.74 C410.46 772.92 410.5 787.1 410.54 801.28 C410.57 810.02 410.59 818.76 410.61 827.5 C410.62 833.51 410.64 839.51 410.66 845.51 C410.67 848.97 410.68 852.43 410.68 855.89 C410.64 893.47 410.64 893.47 428 926 C447.51 941.37 471.11 941.45 494.68 941.48 C497.24 941.49 499.79 941.51 502.34 941.52 C508.33 941.56 514.32 941.59 520.31 941.6 C531.72 941.64 543.12 941.7 554.53 941.77 C558.27 941.79 562.02 941.8 565.76 941.81 C568.04 941.82 570.31 941.83 572.58 941.84 C573.63 941.84 574.68 941.84 575.76 941.85 C577.17 941.85 577.17 941.85 578.62 941.86 C579.86 941.87 579.86 941.87 581.13 941.87 C583 942 583 942 584 943 C584.1 944.85 584.13 946.7 584.13 948.56 C584.13 950.38 584.13 950.38 584.13 952.23 C584.13 953.6 584.13 954.96 584.13 956.32 C584.13 957.76 584.13 959.2 584.13 960.63 C584.14 964.6 584.13 968.56 584.13 972.52 C584.13 976.79 584.13 981.06 584.13 985.32 C584.14 993.69 584.14 1002.06 584.14 1010.42 C584.13 1017.22 584.13 1024.02 584.13 1030.82 C584.13 1032.26 584.13 1032.26 584.13 1033.74 C584.13 1035.7 584.13 1037.66 584.14 1039.62 C584.14 1058.03 584.13 1076.44 584.13 1094.85 C584.12 1110.67 584.13 1126.48 584.13 1142.3 C584.14 1160.64 584.14 1178.98 584.13 1197.32 C584.13 1199.28 584.13 1201.23 584.13 1203.18 C584.13 1204.15 584.13 1205.11 584.13 1206.1 C584.13 1212.89 584.13 1219.68 584.14 1226.48 C584.14 1234.75 584.14 1243.02 584.13 1251.29 C584.13 1255.52 584.13 1259.74 584.13 1263.97 C584.14 1267.83 584.13 1271.69 584.13 1275.55 C584.13 1276.95 584.13 1278.36 584.13 1279.76 C584.13 1281.66 584.13 1283.55 584.13 1285.44 C584.13 1286.5 584.13 1287.56 584.13 1288.65 C584 1291 584 1291 583 1292 C580.77 1292.1 578.53 1292.13 576.29 1292.13 C575.23 1292.13 575.23 1292.13 574.14 1292.13 C571.74 1292.14 569.34 1292.13 566.94 1292.13 C565.23 1292.13 563.52 1292.13 561.8 1292.13 C557.13 1292.14 552.45 1292.14 547.78 1292.13 C542.87 1292.13 537.96 1292.13 533.06 1292.14 C524.79 1292.14 516.52 1292.14 508.25 1292.13 C498.75 1292.12 489.25 1292.13 479.75 1292.13 C471.57 1292.14 463.38 1292.14 455.2 1292.13 C450.33 1292.13 445.45 1292.13 440.58 1292.14 C414.88 1292.15 389.24 1292.07 363.62 1289.75 C362.93 1289.69 362.23 1289.62 361.51 1289.56 C299.7 1283.92 238.19 1270.2 183 1241 C182.22 1240.59 181.43 1240.17 180.62 1239.75 C154.36 1225.82 131.31 1208.45 109.56 1188.25 C108.91 1187.65 108.26 1187.05 107.59 1186.43 C103.67 1182.74 100.06 1178.89 96.55 1174.8 C94.7 1172.65 92.76 1170.58 90.81 1168.5 C80.71 1157.28 72.11 1144.71 64 1132 C63.3 1130.9 62.59 1129.81 61.87 1128.68 C27.39 1073.59 10.49 1008.82 3.69 944.69 C3.61 943.99 3.54 943.29 3.46 942.57 C0.65 916.06 -0.31 889.42 -0.23 862.78 C-0.22 859.13 -0.23 855.49 -0.23 851.84 C-0.23 845.57 -0.22 839.3 -0.21 833.03 C-0.19 823.97 -0.19 814.9 -0.19 805.84 C-0.18 791.12 -0.17 776.41 -0.15 761.69 C-0.13 747.42 -0.12 733.15 -0.11 718.88 C-0.11 717.99 -0.11 717.09 -0.11 716.17 C-0.1 709.18 -0.1 702.2 -0.1 695.21 C-0.08 661.14 -0.04 627.07 0 593 C-42.57 593 -85.14 593 -129 593 C-129 480.14 -129 367.28 -129 251 C-86.43 251 -43.86 251 0 251 C0 168.17 0 85.34 0 0 Z " fill="#FFFFFF" transform="translate(6815,915)"/>
<path d="M0 0 C0.86 0 1.72 0 2.61 0 C98.6 0.18 188.82 25.93 289.28 97.84 C290.78 99.06 292.28 100.25 293.79 101.45 C305.2 110.55 315.6 120.78 325.94 131.06 C326.63 131.75 327.32 132.44 328.04 133.15 C337.13 142.27 344.85 152.07 352.94 162.19 C353.27 114.34 353.6 66.49 353.94 17.19 C424.23 17.19 494.52 17.19 566.94 17.19 C566.96 135.48 566.96 135.48 566.96 172.07 C566.96 173.37 566.96 174.68 566.96 176.02 C566.97 219.92 566.98 263.83 566.98 307.73 C566.98 309.18 566.98 310.63 566.98 312.07 C566.98 342.43 566.99 372.8 566.99 403.16 C566.99 418.41 566.99 433.66 566.99 448.91 C566.99 451.22 566.99 453.52 566.99 455.82 C567 491.26 567 526.7 567.01 562.14 C567.01 562.9 567.01 563.66 567.01 564.45 C567.01 576.74 567.01 589.04 567.01 601.33 C567.02 636.72 567.03 672.12 567.03 707.51 C567.03 708.24 567.03 708.97 567.03 709.72 C567.03 725.68 567.03 741.64 567.03 757.61 C567.03 764.03 567.03 770.45 567.03 776.88 C567.03 777.58 567.03 778.28 567.03 779.01 C567.03 801.68 567.04 824.36 567.04 847.03 C567.05 870.5 567.05 893.96 567.05 917.42 C567.05 930.96 567.05 944.51 567.06 958.05 C567.06 967.07 567.06 976.1 567.06 985.13 C567.06 990.29 567.06 995.44 567.06 1000.6 C567.07 1005.28 567.07 1009.95 567.06 1014.63 C567.06 1016.33 567.06 1018.02 567.06 1019.71 C567.07 1021.99 567.07 1024.27 567.06 1026.55 C567.06 1027.82 567.06 1029.08 567.06 1030.39 C566.94 1033.19 566.94 1033.19 565.94 1034.19 C563.21 1034.29 560.5 1034.32 557.77 1034.31 C556.9 1034.31 556.04 1034.31 555.14 1034.31 C552.22 1034.31 549.29 1034.31 546.36 1034.3 C544.27 1034.3 542.19 1034.3 540.1 1034.3 C534.41 1034.3 528.72 1034.3 523.03 1034.29 C517.09 1034.28 511.15 1034.28 505.21 1034.28 C493.95 1034.28 482.7 1034.27 471.44 1034.26 C456.24 1034.25 441.04 1034.24 425.84 1034.24 C401.87 1034.23 377.9 1034.21 353.94 1034.19 C353.61 985.02 353.28 935.85 352.94 885.19 C348.65 890.47 344.36 895.75 339.94 901.19 C334.06 907.69 334.06 907.69 331.35 910.59 C329.34 912.75 327.41 914.94 325.5 917.19 C318.2 925.57 310.28 933.14 301.58 940.05 C298.98 942.15 296.52 944.36 294.06 946.62 C234.82 1000.45 155.08 1032.8 76.94 1045.19 C75.97 1045.34 74.99 1045.5 73.99 1045.66 C49.79 1049.42 25.53 1050.58 1.06 1050.5 C-0.18 1050.5 -1.41 1050.5 -2.69 1050.49 C-89.35 1050.25 -170.88 1027.53 -300.06 941.19 C-301.14 940.27 -301.14 940.27 -302.23 939.32 C-304.19 937.63 -306.13 935.91 -308.06 934.19 C-308.87 933.47 -309.68 932.76 -310.51 932.02 C-317.33 925.88 -323.88 919.48 -330.38 913 C-331.22 912.16 -332.07 911.31 -332.94 910.44 C-337.86 905.52 -342.55 900.48 -347.06 895.19 C-347.94 894.18 -348.82 893.17 -349.7 892.16 C-357.17 883.43 -364.19 874.4 -371.06 865.19 C-371.61 864.46 -372.15 863.73 -372.71 862.98 C-381.08 851.73 -388.76 840.16 -396.06 828.19 C-396.57 827.36 -397.08 826.53 -397.61 825.67 C-418.57 791.49 -435.46 755.25 -448.06 717.19 C-448.45 716.01 -448.84 714.83 -449.25 713.62 C-463.33 670.74 -471.87 626.19 -475.75 581.25 C-475.84 580.2 -475.84 580.2 -475.93 579.13 C-477.57 559.98 -478.27 540.84 -478.25 521.62 C-478.25 520.66 -478.25 519.69 -478.25 518.69 C-478.08 436.43 -463.89 354.15 -358.06 165.19 C-357.63 164.67 -357.2 164.16 -356.76 163.62 C-344.21 148.64 -331 133.71 -316.14 120.98 C-313.86 119.01 -311.65 116.98 -309.44 114.94 C-303.84 109.89 -297.96 105.27 -291.99 100.68 C-290.02 99.16 -288.07 97.63 -286.12 96.09 C-270.6 83.94 -254.18 72.98 -237.06 63.19 C-236.36 62.79 -235.66 62.38 -234.94 61.97 C-224.48 56.02 -213.91 50.39 -203.06 45.19 C-202.22 44.78 -201.38 44.37 -200.51 43.95 C-149.7 19.43 -93.37 4.78 -37.06 1.19 C-35.75 1.1 -34.45 1.02 -33.1 0.93 C-22.06 0.23 -11.06 -0.01 0 0 Z M-1.06 187.19 C-2.85 187.46 -4.65 187.73 -6.44 188 C-30.91 191.87 -54.39 199.29 -77.06 209.19 C-77.85 209.53 -78.64 209.87 -79.45 210.22 C-102.82 220.4 -124.19 234.3 -144.06 250.19 C-145.05 250.97 -146.04 251.75 -147.05 252.55 C-161.34 264.22 -174.89 277.5 -186.06 292.19 C-186.92 293.26 -187.78 294.33 -188.64 295.39 C-231.84 349.01 -253.43 413.22 -260.06 481.19 C-260.16 482.1 -260.26 483.02 -260.36 483.97 C-261.46 495.77 -261.31 507.65 -261.31 519.5 C-261.31 520.68 -261.31 521.86 -261.31 523.08 C-261.3 541.97 -260.69 560.46 -258.06 579.19 C-257.89 580.45 -257.71 581.71 -257.53 583.01 C-247.6 651.36 -220.76 717.65 -173.33 768.73 C-171.34 770.89 -169.41 773.08 -167.5 775.31 C-161.2 782.52 -154.41 788.9 -146.93 794.88 C-144.03 797.22 -141.2 799.64 -138.38 802.06 C-88.97 843.24 -24.71 864.55 38.94 867.19 C39.7 867.22 40.46 867.26 41.25 867.29 C84.37 869.04 131.16 858.99 169.94 840.19 C170.59 839.87 171.24 839.56 171.91 839.24 C176.62 836.95 181.28 834.59 185.94 832.19 C186.58 831.86 187.21 831.54 187.87 831.2 C212.28 818.69 233.34 802.06 253.38 783.44 C254.03 782.84 254.68 782.23 255.35 781.61 C259.85 777.38 263.93 772.89 267.94 768.19 C268.84 767.15 269.74 766.12 270.64 765.09 C277.51 757.09 283.87 748.81 289.94 740.19 C290.56 739.3 290.56 739.3 291.2 738.4 C298.32 728.23 304.51 717.55 310.54 706.7 C311.8 704.44 313.07 702.19 314.35 699.95 C361.85 614.9 363.85 501.85 338.5 409.91 C323.54 357.3 294.62 308.75 255.94 270.19 C254.88 269.11 253.83 268.03 252.77 266.95 C208.72 222.05 148.54 195.59 86.94 186.19 C86.1 186.06 85.26 185.92 84.4 185.79 C56.74 181.68 26.45 182.6 -1.06 187.19 Z " fill="#FFFFFF" transform="translate(9434.0625,1172.8125)"/>
<path d="M0 0 C1.51 -0 1.51 -0 3.05 -0 C100.61 0.06 198.07 23.47 337.88 119.25 C338.78 120.04 339.68 120.83 340.61 121.64 C347.88 128.16 354.78 135.05 361.69 141.94 C362.19 142.44 362.69 142.93 363.2 143.45 C368.98 149.2 374.62 155.01 379.88 161.25 C380.6 162.1 381.32 162.96 382.07 163.84 C408.22 195.65 430.16 230.05 447.88 267.25 C448.22 267.96 448.56 268.67 448.91 269.41 C471.93 317.92 485.24 370.2 492.06 423.31 C492.3 425.1 492.3 425.1 492.53 426.92 C495.36 450.13 496.21 473.26 496.14 496.6 C496.12 500.36 496.13 504.13 496.14 507.89 C496.21 533.12 495.07 558.14 491.81 583.19 C491.64 584.59 491.46 586 491.29 587.41 C490.58 593.04 489.81 598.65 488.88 604.25 C232.8 604.25 -23.28 604.25 -287.12 604.25 C-279.93 661.8 -266.52 714.48 -231.12 761.25 C-230.53 762.04 -230.53 762.04 -229.93 762.84 C-222.61 772.57 -214.58 781.49 -206.12 790.25 C-205.3 791.12 -204.47 791.99 -203.62 792.88 C-198.16 798.49 -192.25 803.39 -186.12 808.25 C-185.09 809.1 -184.05 809.95 -183.02 810.8 C-120.22 862 -38.29 877.89 40.88 870.25 C98.35 863.98 149.32 841.28 190.88 801.25 C191.68 800.49 192.49 799.72 193.32 798.93 C198.33 794.07 202.65 788.8 206.88 783.25 C207.38 782.6 207.88 781.94 208.4 781.27 C219.97 766.18 229.87 750.33 238.67 733.49 C239.88 731.25 239.88 731.25 240.88 730.25 C243.8 730.15 246.69 730.12 249.61 730.13 C250.54 730.13 251.47 730.13 252.42 730.13 C255.56 730.13 258.69 730.13 261.83 730.14 C264.06 730.14 266.3 730.14 268.54 730.14 C274.63 730.14 280.72 730.14 286.81 730.15 C293.17 730.15 299.53 730.16 305.89 730.16 C316.57 730.16 327.25 730.17 337.94 730.17 C348.94 730.18 359.94 730.19 370.95 730.2 C371.96 730.2 371.96 730.2 373 730.2 C376.4 730.2 379.8 730.2 383.2 730.2 C411.42 730.21 439.65 730.23 467.88 730.25 C467.25 734.98 466.38 739.11 464.69 743.57 C464.24 744.76 463.79 745.94 463.33 747.16 C462.85 748.42 462.36 749.68 461.88 750.94 C461.51 751.9 461.51 751.9 461.13 752.88 C454.92 769.06 447.87 784.79 439.93 800.19 C439.2 801.61 438.48 803.03 437.76 804.45 C420.72 838.12 398.55 868.88 373.14 896.74 C371.87 898.14 370.62 899.55 369.38 900.99 C364.64 906.51 359.6 911.68 354.44 916.81 C353.63 917.62 352.82 918.44 351.99 919.27 C347.11 924.14 342.11 928.78 336.88 933.25 C335.76 934.22 334.64 935.2 333.52 936.17 C290.54 973.41 242.28 1001.68 188.88 1021.25 C187.91 1021.6 186.95 1021.96 185.96 1022.32 C158.85 1032.17 130.32 1038.71 101.88 1043.25 C100.77 1043.43 99.67 1043.61 98.54 1043.79 C90.01 1045.15 81.46 1046.27 72.88 1047.25 C72.22 1047.33 71.57 1047.4 70.89 1047.48 C25.25 1052.74 -23.54 1053.15 -69.12 1047.25 C-70.32 1047.11 -71.52 1046.96 -72.75 1046.81 C-157.75 1036.44 -239.45 1005.75 -308.12 954.25 C-308.74 953.79 -309.35 953.33 -309.98 952.86 C-320.48 944.95 -330.66 936.73 -340.32 927.8 C-342.43 925.88 -344.57 924.02 -346.73 922.16 C-351.76 917.77 -356.46 913.06 -361.17 908.33 C-362.68 906.82 -364.2 905.3 -365.72 903.79 C-371.07 898.45 -376.24 893.02 -381.12 887.25 C-381.97 886.29 -382.82 885.32 -383.69 884.33 C-392 874.68 -399.6 864.52 -407.12 854.25 C-407.93 853.15 -407.93 853.15 -408.76 852.03 C-422.83 832.77 -434.79 812.21 -446.12 791.25 C-446.6 790.37 -447.08 789.5 -447.57 788.6 C-484.09 720.75 -499.77 643.46 -505.12 567.25 C-505.2 566.26 -505.27 565.27 -505.34 564.25 C-511.07 482 -500.96 396.08 -456.12 275.25 C-455.67 274.25 -455.21 273.25 -454.74 272.21 C-437.22 233.94 -414.05 198.55 -387.12 166.25 C-386.71 165.74 -386.29 165.24 -385.85 164.72 C-378.57 155.99 -370.93 147.74 -362.86 139.73 C-361.05 137.93 -359.26 136.12 -357.46 134.31 C-351.44 128.28 -345.33 122.58 -338.65 117.28 C-336.19 115.3 -333.85 113.25 -331.52 111.13 C-327.15 107.21 -322.58 103.63 -317.88 100.12 C-317.02 99.48 -316.16 98.84 -315.27 98.18 C-245.84 46.85 -164.67 15.71 0 0 Z M-184.12 239.25 C-185.07 240.01 -186.02 240.77 -187 241.56 C-200.65 252.67 -213.44 265.25 -224.12 279.25 C-224.89 280.2 -225.66 281.16 -226.46 282.14 C-233.8 291.35 -240.03 301.18 -246.12 311.25 C-246.53 311.91 -246.94 312.58 -247.36 313.26 C-268.04 347.32 -285.12 393.89 -285.12 434.25 C-100 434.25 85.14 434.25 275.88 434.25 C275.24 417.21 275.24 417.21 273.62 400.31 C273.49 399.32 273.36 398.34 273.23 397.32 C264.75 336.13 234.47 280.73 185.88 242.25 C184.8 241.34 184.8 241.34 183.7 240.41 C169.51 228.51 153.3 218.73 136.88 210.25 C136.16 209.88 135.44 209.5 134.7 209.12 C45.64 163.17 -72.88 166.43 -184.12 239.25 Z " fill="#FFFFFF" transform="translate(11398.125,1172.75)"/>
<path d="M0 0 C1.74 -0.04 1.74 -0.04 3.52 -0.09 C11.59 0.93 17.44 5.84 23.62 10.81 C25.22 12.07 26.81 13.33 28.4 14.59 C29.2 15.22 30 15.85 30.82 16.51 C34.43 19.36 38.09 22.15 41.75 24.94 C43.15 26.01 44.55 27.08 45.96 28.15 C46.65 28.68 47.35 29.21 48.06 29.75 C51.69 32.52 55.31 35.29 58.94 38.06 C59.65 38.61 60.36 39.15 61.09 39.71 C66.35 43.73 71.59 47.76 76.83 51.79 C82.87 56.44 88.94 61.07 95 65.7 C99.27 68.96 103.53 72.23 107.8 75.49 C111.39 78.24 114.99 80.99 118.58 83.73 C126 89.41 133.42 95.09 140.83 100.79 C147.6 106 154.4 111.19 161.19 116.38 C170.08 123.17 178.96 129.97 187.83 136.79 C194.6 142 201.4 147.19 208.19 152.38 C217.08 159.17 225.96 165.97 234.83 172.79 C240.87 177.44 246.94 182.07 253 186.7 C257.27 189.96 261.53 193.23 265.8 196.49 C269.39 199.24 272.99 201.99 276.58 204.73 C284 210.41 291.42 216.09 298.83 221.79 C305.6 227 312.4 232.19 319.19 237.38 C328.08 244.17 336.96 250.97 345.83 257.79 C351.87 262.44 357.94 267.07 364 271.7 C368.27 274.96 372.53 278.23 376.8 281.49 C380.39 284.24 383.99 286.99 387.58 289.73 C395 295.4 402.42 301.08 409.81 306.79 C412.31 308.71 414.82 310.61 417.35 312.5 C440.93 330.21 458.63 349.82 465.44 379.38 C465.6 380.07 465.76 380.77 465.93 381.49 C468.42 393.06 468.33 404.94 468.32 416.72 C468.32 418.24 468.32 419.76 468.32 421.27 C468.33 425.42 468.32 429.57 468.32 433.73 C468.32 438.25 468.32 442.77 468.33 447.29 C468.33 455.21 468.33 463.13 468.33 471.05 C468.33 482.82 468.34 494.6 468.34 506.38 C468.35 528.63 468.35 550.89 468.35 573.14 C468.36 590.32 468.36 607.5 468.36 624.68 C468.36 629.63 468.36 634.57 468.36 639.52 C468.36 641.36 468.36 641.36 468.36 643.24 C468.37 677.82 468.37 712.4 468.37 746.97 C468.37 748.28 468.37 749.58 468.37 750.92 C468.37 757.53 468.37 764.13 468.37 770.74 C468.37 772.71 468.37 772.71 468.37 774.71 C468.37 777.37 468.37 780.02 468.37 782.67 C468.37 823.98 468.38 865.28 468.39 906.58 C468.41 952.98 468.42 999.37 468.42 1045.77 C468.42 1050.71 468.42 1055.66 468.42 1060.6 C468.42 1062.43 468.42 1062.43 468.42 1064.29 C468.42 1083.9 468.42 1103.51 468.43 1123.12 C468.44 1142.82 468.44 1162.51 468.43 1182.21 C468.43 1193.92 468.43 1205.62 468.44 1217.33 C468.45 1225.14 468.45 1232.96 468.44 1240.77 C468.44 1245.23 468.43 1249.68 468.44 1254.14 C468.45 1258.19 468.45 1262.25 468.44 1266.3 C468.44 1267.76 468.44 1269.22 468.44 1270.67 C468.48 1281.5 468.42 1291.69 461.19 1300.38 C456.04 1305.26 450.86 1308.33 443.59 1308.4 C433.17 1307.84 426.46 1303.14 418.5 1296.75 C416.9 1295.49 415.31 1294.23 413.71 1292.96 C412.94 1292.35 412.16 1291.73 411.37 1291.1 C408.47 1288.81 405.55 1286.56 402.62 1284.31 C401.6 1283.52 400.57 1282.73 399.51 1281.92 C392.74 1276.73 385.96 1271.55 379.19 1266.38 C370.3 1259.58 361.41 1252.78 352.55 1245.96 C346.5 1241.31 340.44 1236.68 334.38 1232.05 C330.11 1228.79 325.84 1225.52 321.57 1222.26 C317.98 1219.51 314.39 1216.76 310.8 1214.02 C303.37 1208.34 295.95 1202.66 288.55 1196.96 C281.77 1191.75 274.98 1186.56 268.19 1181.38 C259.3 1174.58 250.41 1167.78 241.55 1160.96 C234.77 1155.75 227.98 1150.56 221.19 1145.38 C212.3 1138.58 203.41 1131.78 194.55 1124.96 C188.5 1120.31 182.44 1115.68 176.38 1111.05 C172.11 1107.79 167.84 1104.52 163.57 1101.26 C159.98 1098.51 156.39 1095.76 152.8 1093.02 C145.37 1087.34 137.95 1081.66 130.55 1075.96 C123.77 1070.75 116.98 1065.56 110.19 1060.38 C101.3 1053.58 92.41 1046.78 83.55 1039.96 C77.5 1035.31 71.44 1030.68 65.38 1026.05 C61.11 1022.79 56.84 1019.52 52.57 1016.26 C48.98 1013.51 45.39 1010.76 41.8 1008.02 C26.21 996.1 26.21 996.1 19.05 990.57 C17.27 989.21 15.49 987.86 13.7 986.52 C-6.61 971.21 -20.22 948.17 -24.36 923.05 C-24.79 919.57 -24.94 916.25 -24.94 912.74 C-24.95 911.44 -24.95 910.13 -24.95 908.79 C-24.95 907.35 -24.95 905.91 -24.95 904.47 C-24.95 902.93 -24.95 901.39 -24.96 899.85 C-24.96 895.6 -24.97 891.35 -24.97 887.1 C-24.97 882.48 -24.97 877.87 -24.98 873.25 C-24.99 864.09 -25 854.92 -25 845.76 C-25.01 834.79 -25.02 823.81 -25.03 812.84 C-25.05 786.32 -25.07 759.8 -25.08 733.28 C-25.08 724.5 -25.09 715.72 -25.09 706.94 C-25.12 660.93 -25.14 614.92 -25.15 568.91 C-25.15 565.54 -25.15 562.17 -25.16 558.81 C-25.16 558.14 -25.16 557.47 -25.16 556.78 C-25.16 550.02 -25.16 543.25 -25.16 536.48 C-25.16 535.13 -25.16 533.77 -25.16 532.41 C-25.18 488.83 -25.2 445.24 -25.25 401.66 C-25.29 356.19 -25.32 310.71 -25.32 265.24 C-25.32 258.91 -25.32 252.59 -25.33 246.27 C-25.33 245.02 -25.33 243.78 -25.33 242.5 C-25.33 222.45 -25.35 202.4 -25.38 182.35 C-25.4 162.21 -25.41 142.07 -25.4 121.93 C-25.39 109.96 -25.4 97.99 -25.43 86.02 C-25.45 78.03 -25.45 70.04 -25.43 62.04 C-25.42 57.49 -25.42 52.93 -25.44 48.38 C-25.46 44.23 -25.46 40.08 -25.44 35.94 C-25.43 34.45 -25.44 32.96 -25.45 31.47 C-25.53 22.8 -25.08 15.55 -19.81 8.38 C-13.85 2.75 -8.27 0.09 0 0 Z " fill="#FFFFFF" transform="translate(1194.8125,1479.625)"/>
<path d="M0 0 C2.59 2.05 5.12 4.14 7.64 6.27 C11.83 9.73 16.2 12.94 20.56 16.19 C29.47 22.83 38.26 29.61 47.01 36.45 C56.89 44.15 66.86 51.72 76.81 59.33 C81.08 62.59 85.35 65.85 89.62 69.12 C93.21 71.86 96.8 74.61 100.39 77.36 C107.82 83.03 115.23 88.72 122.64 94.42 C129.41 99.63 136.21 104.81 143 110 C151.89 116.79 160.78 123.59 169.64 130.42 C176.41 135.63 183.21 140.81 190 146 C198.89 152.79 207.78 159.59 216.64 166.42 C222.69 171.07 228.75 175.7 234.81 180.33 C239.08 183.59 243.35 186.85 247.62 190.12 C251.21 192.86 254.8 195.61 258.39 198.36 C265.82 204.03 273.23 209.72 280.64 215.42 C287.41 220.63 294.21 225.81 301 231 C309.89 237.79 318.78 244.59 327.64 251.42 C333.69 256.07 339.75 260.7 345.81 265.33 C350.08 268.59 354.35 271.85 358.62 275.12 C362.21 277.86 365.8 280.61 369.39 283.36 C376.81 289.03 384.23 294.7 391.62 300.41 C394.12 302.33 396.64 304.23 399.16 306.12 C422.75 323.84 440.44 343.45 447.25 373 C447.41 373.7 447.58 374.4 447.74 375.12 C450.23 386.69 450.15 398.57 450.13 410.35 C450.13 411.87 450.13 413.38 450.13 414.9 C450.14 419.05 450.14 423.2 450.13 427.35 C450.13 431.87 450.14 436.39 450.14 440.92 C450.15 448.83 450.15 456.75 450.15 464.67 C450.14 476.45 450.15 488.23 450.15 500 C450.16 522.26 450.17 544.51 450.17 566.77 C450.17 583.95 450.17 601.13 450.17 618.31 C450.17 623.25 450.17 628.2 450.18 633.14 C450.18 634.99 450.18 634.99 450.18 636.87 C450.18 671.45 450.19 706.02 450.19 740.6 C450.19 741.9 450.19 743.2 450.19 744.55 C450.19 751.15 450.19 757.76 450.19 764.36 C450.19 766.33 450.19 766.33 450.19 768.34 C450.19 770.99 450.19 773.64 450.19 776.3 C450.18 817.6 450.19 858.9 450.21 900.2 C450.22 946.6 450.23 993 450.23 1039.39 C450.23 1044.34 450.23 1049.28 450.23 1054.23 C450.23 1056.05 450.23 1056.05 450.23 1057.92 C450.23 1077.53 450.24 1097.14 450.24 1116.75 C450.25 1136.44 450.25 1156.14 450.25 1175.83 C450.24 1187.54 450.24 1199.25 450.25 1210.95 C450.26 1218.77 450.26 1226.58 450.25 1234.4 C450.25 1238.85 450.25 1243.31 450.26 1247.77 C450.26 1251.82 450.26 1255.87 450.25 1259.93 C450.25 1261.38 450.25 1262.84 450.26 1264.3 C450.33 1285.63 450.33 1285.63 443 1294 C436.96 1298.88 432.13 1301.15 424.31 1301.31 C423.13 1301.35 421.95 1301.39 420.74 1301.43 C412.52 1300.49 406.59 1295.42 400.31 1290.38 C398.72 1289.11 397.12 1287.85 395.52 1286.59 C394.75 1285.97 393.98 1285.36 393.18 1284.73 C390.29 1282.43 387.37 1280.18 384.44 1277.94 C383.41 1277.15 382.38 1276.36 381.32 1275.55 C374.55 1270.36 367.78 1265.18 361 1260 C352.11 1253.21 343.22 1246.41 334.36 1239.58 C328.31 1234.93 322.25 1230.3 316.19 1225.67 C311.92 1222.41 307.65 1219.15 303.38 1215.88 C299.79 1213.14 296.2 1210.39 292.61 1207.64 C285.18 1201.97 277.77 1196.28 270.36 1190.58 C263.59 1185.37 256.79 1180.19 250 1175 C241.11 1168.21 232.22 1161.41 223.36 1154.58 C216.59 1149.37 209.79 1144.19 203 1139 C194.11 1132.21 185.22 1125.41 176.36 1118.58 C170.31 1113.93 164.25 1109.3 158.19 1104.67 C153.92 1101.41 149.65 1098.15 145.38 1094.88 C141.79 1092.14 138.2 1089.39 134.61 1086.64 C127.18 1080.97 119.77 1075.28 112.36 1069.58 C105.59 1064.37 98.79 1059.19 92 1054 C83.11 1047.21 74.22 1040.41 65.36 1033.58 C59.31 1028.93 53.25 1024.3 47.19 1019.67 C42.92 1016.41 38.65 1013.15 34.38 1009.88 C30.79 1007.14 27.2 1004.39 23.61 1001.64 C20.06 998.93 16.51 996.22 12.97 993.5 C11.7 992.53 10.43 991.56 9.15 990.59 C6.41 988.49 3.66 986.38 0.92 984.26 C-0.93 982.82 -2.8 981.4 -4.67 979.99 C-18.4 969.46 -29.11 955.59 -35.88 939.69 C-36.14 939.09 -36.4 938.48 -36.67 937.86 C-37.57 935.61 -38.28 933.32 -39 931 C-39.33 929.96 -39.67 928.93 -40.01 927.86 C-44.51 912.11 -43.57 895.55 -43.51 879.33 C-43.5 874.71 -43.52 870.08 -43.53 865.45 C-43.54 857.36 -43.54 849.26 -43.53 841.17 C-43.52 829.13 -43.52 817.09 -43.54 805.06 C-43.56 783.56 -43.55 762.06 -43.54 740.56 C-43.53 721.75 -43.53 702.94 -43.54 684.14 C-43.54 682.89 -43.54 681.64 -43.54 680.35 C-43.54 675.29 -43.54 670.22 -43.54 665.15 C-43.55 629.81 -43.55 594.46 -43.54 559.12 C-43.54 558.45 -43.54 557.79 -43.53 557.1 C-43.53 546.29 -43.53 535.48 -43.52 524.67 C-43.5 481.78 -43.5 438.88 -43.52 395.99 C-43.53 385.17 -43.53 374.36 -43.54 363.54 C-43.54 362.88 -43.54 362.21 -43.54 361.52 C-43.55 325.58 -43.55 289.63 -43.54 253.69 C-43.54 248.63 -43.54 243.58 -43.54 238.53 C-43.53 237.28 -43.53 236.04 -43.53 234.76 C-43.53 215.95 -43.54 197.15 -43.55 178.34 C-43.56 156.97 -43.55 135.6 -43.53 114.23 C-43.52 102.27 -43.52 90.3 -43.53 78.34 C-43.54 70.35 -43.54 62.37 -43.52 54.38 C-43.51 49.83 -43.51 45.27 -43.52 40.72 C-43.54 36.58 -43.53 32.44 -43.51 28.3 C-43.51 26.81 -43.51 25.32 -43.52 23.83 C-43.58 14.57 -43.19 8.16 -37.21 0.79 C-25.49 -9.46 -12.28 -9.06 0 0 Z " fill="#FFFFFF" transform="translate(1213,344)"/>
<path d="M0 0 C70.29 0 140.58 0 213 0 C213 83.49 213 166.98 213 253 C294.84 253 376.68 253 461 253 C461 309.76 461 366.52 461 425 C379.16 425 297.32 425 213 425 C213.12 522.69 213.12 522.69 213.25 620.37 C213.27 634.54 213.29 648.71 213.31 662.87 C213.32 664.59 213.32 666.3 213.32 668.01 C213.36 695.29 213.39 722.56 213.42 749.83 C213.46 777.88 213.49 805.93 213.54 833.98 C213.55 837.95 213.55 841.92 213.56 845.89 C213.56 846.67 213.56 847.46 213.56 848.26 C213.58 860.79 213.59 873.33 213.61 885.86 C213.62 898.48 213.63 911.11 213.66 923.73 C213.67 930.56 213.68 937.4 213.68 944.23 C213.69 950.5 213.7 956.77 213.71 963.04 C213.72 965.29 213.72 967.54 213.72 969.79 C213.71 981.35 213.99 992.82 214.88 1004.34 C214.96 1005.34 215.03 1006.35 215.11 1007.39 C217.04 1030.17 224.03 1053.26 241.04 1069.38 C272.15 1094.99 317.35 1093.26 355.2 1093.4 C358.94 1093.42 362.68 1093.45 366.42 1093.47 C373.45 1093.52 380.48 1093.56 387.52 1093.59 C395.54 1093.63 403.57 1093.68 411.6 1093.73 C428.07 1093.83 444.53 1093.92 461 1094 C461.02 1116.8 461.04 1139.6 461.05 1162.4 C461.06 1172.99 461.06 1183.57 461.08 1194.16 C461.09 1203.38 461.09 1212.6 461.09 1221.83 C461.1 1226.71 461.1 1231.6 461.11 1236.48 C461.11 1241.08 461.11 1245.67 461.11 1250.27 C461.11 1251.96 461.12 1253.65 461.12 1255.34 C461.12 1257.64 461.12 1259.94 461.12 1262.24 C461.12 1263.53 461.12 1264.82 461.12 1266.14 C461 1269 461 1269 460 1270 C457.73 1270.1 455.46 1270.13 453.19 1270.13 C452.1 1270.14 452.1 1270.14 451 1270.14 C448.56 1270.15 446.12 1270.15 443.69 1270.15 C441.95 1270.15 440.2 1270.15 438.46 1270.16 C433.71 1270.16 428.96 1270.17 424.2 1270.17 C421.22 1270.17 418.24 1270.17 415.25 1270.17 C404.81 1270.18 394.37 1270.19 383.92 1270.19 C374.26 1270.18 364.6 1270.2 354.94 1270.21 C346.6 1270.22 338.27 1270.23 329.93 1270.23 C324.98 1270.23 320.02 1270.23 315.06 1270.24 C286.39 1270.3 257.8 1269.86 229.31 1266.25 C228.32 1266.13 228.32 1266.13 227.3 1266 C169.84 1258.78 112.93 1238.96 70.47 1198.4 C69.49 1197.46 68.5 1196.53 67.51 1195.61 C55.11 1184.01 45.35 1170.57 37.02 1155.81 C36.04 1154.07 35.03 1152.34 34.02 1150.61 C10.18 1108.21 2.15 1057.33 0.45 1009.31 C0.4 1008.13 0.36 1006.96 0.32 1005.75 C-0.08 993.87 -0.14 982 -0.12 970.11 C-0.12 967.74 -0.12 965.36 -0.12 962.99 C-0.12 957.22 -0.12 951.45 -0.12 945.69 C-0.11 938.76 -0.11 931.83 -0.11 924.91 C-0.12 912.13 -0.11 899.36 -0.11 886.58 C-0.1 873.95 -0.1 861.32 -0.09 848.69 C-0.09 847.51 -0.09 847.51 -0.09 846.31 C-0.09 842.3 -0.09 838.3 -0.09 834.29 C-0.09 806.01 -0.08 777.72 -0.08 749.43 C-0.07 721.97 -0.06 694.51 -0.05 667.05 C-0.05 666.2 -0.05 665.35 -0.05 664.48 C-0.05 655.96 -0.05 647.44 -0.05 638.93 C-0.05 621.58 -0.05 604.23 -0.04 586.88 C-0.04 585.69 -0.04 585.69 -0.04 584.47 C-0.04 560.05 -0.03 535.63 -0.03 511.21 C-0.03 510.52 -0.03 509.83 -0.03 509.11 C-0.02 481.08 -0.01 453.04 0 425 C-39.27 425 -78.54 425 -119 425 C-119 368.24 -119 311.48 -119 253 C-79.73 253 -40.46 253 0 253 C0 169.51 0 86.02 0 0 Z " fill="#FFFFFF" transform="translate(10309,937)"/>
</svg>
